<?xml version="1.0" encoding="utf-8"?>
<!-- Generator: Adobe Illustrator 26.5.0, SVG Export Plug-In . SVG Version: 6.00 Build 0)  -->
<svg version="1.1" id="Livello_1" xmlns="http://www.w3.org/2000/svg" xmlns:xlink="http://www.w3.org/1999/xlink" x="0px" y="0px"
	 viewBox="0 0 1516 1610.7" style="enable-background:new 0 0 1516 1610.7;" xml:space="preserve">
<style type="text/css">
	.st0{fill:#97FFFF;stroke:#1D1D1B;stroke-width:5;stroke-miterlimit:10;}
	.st1{fill:none;stroke:#000000;stroke-width:5;stroke-miterlimit:10;}
	.st2{fill:#B6FFC0;stroke:#1D1D1B;stroke-width:5;stroke-miterlimit:10;}
	.st3{fill:#ABBBFF;stroke:#1D1D1B;stroke-width:5;stroke-miterlimit:10;}
	.st4{stroke:#000000;stroke-width:2;stroke-miterlimit:10;}
	.st5{fill:#B6FFC0;}
	.st6{fill:#FFFACF;stroke:#1D1D1B;stroke-width:5;stroke-miterlimit:10;}
	.st7{fill:#FFFFFF;stroke:#1D1D1B;stroke-width:5;stroke-miterlimit:10;}
	.st8{fill:#E1B3FF;stroke:#1D1D1B;stroke-width:5;stroke-miterlimit:10;}
</style>
<g>
	<path class="st0" d="M1482.8,1558.6H34.4c-6.6,0-12.1-5-12.1-11.2V796.2c0-6.2,5.4-11.2,12.1-11.2h1448.4c6.6,0,12.1,5,12.1,11.2
		v751.2C1495,1553.5,1489.6,1558.6,1482.8,1558.6z"/>
	<path class="st1" d="M22.6,837.2v-80.3c0-5.2,5-9.3,11.2-9.3H273c6.1,0,11.2,4.2,11.2,9.3v28.8"/>
	<g>
		<path d="M43.7,767.3v6c0,2.6,0.4,3.1,2.3,3.1v1.1h-7.8v-1.1c1.6,0,2.6-0.4,2.6-3.2v-12c0-2.8-1.1-3.2-2.6-3.2v-1.1h15.3l0.2,4.4
			h-1.1c-0.7-2.7-0.8-2.8-3.5-2.8h-5.5v7.1h3c2.8,0,3.7,0,3.8-2.3h0.9v6.3h-0.9c-0.2-2.3-1.2-2.4-3.5-2.4h-3.3V767.3z"/>
		<path d="M64.5,776.2v1.1h-8.1v-1.1c1.8,0,2.6-0.6,2.6-3.2v-12c0-2.5-0.8-3.2-2.6-3.2v-1.1h8.1v1.1c-1.8,0-2.6,0.6-2.6,3.2v12
			C62,775.6,62.7,776.2,64.5,776.2z"/>
		<path d="M74.2,776.2v1.1h-7v-1.1c1.7,0,2.6-0.5,2.6-3.2v-12c0-3-1.2-3.2-2.6-3.2v-1.1h4.4L84.8,773v-12c0-2.4-0.8-3.2-2.6-3.2
			v-1.1h7v1.1c-1.7,0-2.5,0.6-2.5,3.2v16.6h-1.9l-13.1-16.1V773C71.6,775.8,72.6,776.2,74.2,776.2z"/>
		<path d="M104.4,769.7H97l-1.7,4.1c-0.2,0.5-0.5,1.2-0.5,1.5c0,0.6,0.9,0.9,2.3,0.9v1.1h-7v-1.1c1.5,0,2.6-0.5,3.4-2.3l7-17.2h1.7
			l7.3,18c0.5,1.4,1.3,1.6,2.6,1.6v1.1h-8v-1.1c1.7,0,2.2-0.5,2.2-1.3c0-0.5-0.2-1.3-0.5-1.8L104.4,769.7z M103.7,768.1l-3.1-7.6
			l-3,7.6H103.7z"/>
		<path d="M122.1,776c4.7,0,6.3-0.3,6.8-3.8v-0.1h1.1l-0.3,5.2h-16.2v-1.1c1.6,0,2.6-0.1,2.6-3.2v-12c0-2.7-0.9-3.2-2.6-3.2v-1.1
			h8.1v1.1c-1.7,0-2.6,0.5-2.6,3.2v12C118.8,775.2,119.2,776,122.1,776z"/>
		<path d="M138.1,758v-1.1h10.3c6.9,0,9.9,5.4,9.9,10.3c0,5.5-4,10.1-10.1,10.1h-10.1v-1.1c1.9,0,2.6-0.5,2.6-3.2v-12
			C140.7,758.4,139.9,758,138.1,758z M146.9,776c4.5,0,7.9-1.7,7.9-8c0-3.6-0.7-9.4-8.4-9.4h-2.7v14.6
			C143.7,775.2,144,776,146.9,776z"/>
		<path d="M173.3,769.7h-7.4l-1.7,4.1c-0.2,0.5-0.5,1.2-0.5,1.5c0,0.6,0.9,0.9,2.3,0.9v1.1h-7v-1.1c1.5,0,2.7-0.5,3.4-2.3l7-17.2
			h1.7l7.3,18c0.5,1.4,1.3,1.6,2.6,1.6v1.1h-8v-1.1c1.7,0,2.2-0.5,2.2-1.3c0-0.5-0.2-1.3-0.4-1.8L173.3,769.7z M172.7,768.1
			l-3.1-7.6l-3.1,7.6H172.7z"/>
		<path d="M193.5,758.6h-3.6v14.6c0,2.7,1.1,3.2,2.6,3.2v1.1h-8.1v-1.1c1.9,0,2.6-0.6,2.6-3.2v-14.6h-3.7c-2.8,0-2.7,0.8-3.2,2.8
			h-0.9l0.2-4.4h18.1l0.2,4.4h-1.1C196.2,758.8,195.9,758.6,193.5,758.6z"/>
		<path d="M210.4,769.7H203l-1.7,4.1c-0.2,0.5-0.5,1.2-0.5,1.5c0,0.6,0.9,0.9,2.3,0.9v1.1h-7v-1.1c1.4,0,2.6-0.5,3.4-2.3l7-17.2h1.7
			l7.3,18c0.5,1.4,1.3,1.6,2.6,1.6v1.1h-8v-1.1c1.7,0,2.2-0.5,2.2-1.3c0-0.5-0.2-1.3-0.5-1.8L210.4,769.7z M209.7,768.1l-3.1-7.6
			l-3,7.6H209.7z"/>
		<path d="M222.4,761c0,5.3,11,3.5,11,11.3c0,3.5-2.6,5.5-7.1,5.5c-3,0-4.4-0.8-5-0.8s-0.5,0.3-0.5,0.5h-0.9l-0.4-5.2h1.1
			c0,0,0.4,4.1,5.7,4.1c2,0,4.2-1.2,4.2-3.3c0-5.7-10.8-4.2-10.8-11.2c0-3.4,2.6-5.3,6.4-5.3c2.5,0,4.1,0.9,4.7,0.9
			c0.3,0,0.6-0.1,0.6-0.6h0.9l0.3,5h-1.1c0,0-0.6-3.9-5.8-3.9C223.3,758.1,222.4,759.9,222.4,761z"/>
		<path d="M241.7,767.3v5.9c0,2,0.1,2.7,3.7,2.7c4.4,0,5.1-0.2,5.7-3.1h0.9l-0.3,4.5h-15.5v-1.1c1.6,0,2.6-0.4,2.6-3.2v-12
			c0-2.8-1.1-3.2-2.6-3.2v-1.1h15.3l0.3,4.4h-1.1c-0.5-2.6-1.1-2.8-2.7-2.8h-6.2v7.1h3.2c2.6,0,3.6-0.3,3.6-2.3h0.9v6.3h-0.9
			c0-2.2-1.2-2.4-3.6-2.4h-3.3V767.3z"/>
		<path d="M268.1,758.6h-3.6v14.6c0,2.7,1.1,3.2,2.6,3.2v1.1H259v-1.1c1.9,0,2.6-0.6,2.6-3.2v-14.6h-3.7c-2.8,0-2.7,0.8-3.2,2.8
			h-0.9l0.2-4.4h18.1l0.2,4.4h-1.1C270.8,758.8,270.5,758.6,268.1,758.6z"/>
	</g>
</g>
<g>
	<path class="st2" d="M717.3,725.2h-683c-6.6,0-12.1-5.4-12.1-12.1V97.6c0-6.6,5.4-12.1,12.1-12.1h682.9c6.6,0,12.1,5.4,12.1,12.1
		v615.5C729.4,719.7,723.9,725.2,717.3,725.2z"/>
	<path class="st1" d="M22.2,139.6V59.7c0-5.1,4.2-9.2,9.2-9.2h284.3c5.1,0,9.2,4.2,9.2,9.2v28.6"/>
	<g>
		<g>
			<path d="M37.2,59.6v-1h10.3c6.8,0,9.9,5.4,9.9,10.3c0,5.5-4,10.1-10.1,10.1H37.2v-1.2c1.9,0,2.6-0.5,2.6-3.1v-12
				C39.7,60,38.9,59.6,37.2,59.6z M45.9,77.5c4.5,0,7.9-1.7,7.9-8c0-3.6-0.7-9.3-8.4-9.3h-2.7v14.5C42.6,76.7,42.9,77.5,45.9,77.5z"
				/>
			<path d="M72.1,71.2h-7.3l-1.7,4.1c-0.2,0.5-0.5,1-0.5,1.5c0,0.6,0.9,0.9,2.3,0.9v1.2h-6.9v-1.2c1.5,0,2.7-0.5,3.4-2.3l6.9-17.1
				h1.7l7.3,17.8c0.5,1.4,1.3,1.6,2.6,1.6v1.2h-8v-1.2c1.7,0,2.2-0.4,2.2-1.3c0-0.5-0.2-1.3-0.4-1.8L72.1,71.2z M71.5,69.7l-3-7.6
				l-3,7.6H71.5z"/>
			<path d="M92.3,60.2h-3.6v14.5c0,2.7,1,3.1,2.6,3.1V79h-8.1v-1.2c1.9,0,2.6-0.6,2.6-3.1V60.2h-3.7c-2.8,0-2.6,0.7-3.1,2.8h-1
				l0.2-4.4h18.1l0.2,4.4h-1C95,60.4,94.7,60.2,92.3,60.2z"/>
			<path d="M109.1,71.2h-7.3l-1.7,4.1c-0.2,0.5-0.5,1-0.5,1.5c0,0.6,0.9,0.9,2.3,0.9v1.2h-7v-1.2c1.5,0,2.7-0.5,3.4-2.3l6.9-17.1
				h1.7l7.2,18c0.5,1.4,1.3,1.6,2.6,1.6V79h-8v-1.2c1.7,0,2.2-0.4,2.2-1.3c0-0.5-0.2-1.3-0.4-1.8L109.1,71.2z M108.3,69.7l-3-7.6
				l-3,7.6H108.3z"/>
			<path d="M141.2,58.6l0.3,4.9h-1c-0.5-2.9-3.3-4-5.9-4c-3.7,0-7.5,2.6-7.5,8.6s4.1,9.1,8,9.1c1.9,0,3.9-0.7,5.1-2.3l1,1
				c-1.7,2-4.4,3-7.2,3c-5.1,0-10.5-3.5-10.5-10.4c0-5.9,3.6-10.6,10.9-10.6c3,0,4.5,0.8,5,0.8c0.2,0,0.4,0,0.4-0.4h1.3V58.6z"/>
			<path d="M163.3,68.6c0,5.4-3.4,10.6-9.9,10.6s-10-5.4-10-10.6c0-5.2,3.3-10.3,9.9-10.3S163.3,63.4,163.3,68.6z M159.9,69.3
				c0-4.6-2.3-9.4-6.7-9.4c-3.8,0-6.4,3.1-6.4,8c0,4.8,2.6,9.9,6.9,9.9C157.5,77.6,159.9,74.2,159.9,69.3z"/>
			<path d="M174.8,77.5c4.7,0,6.3-0.3,6.7-3.8v-0.1h1l-0.3,5.1h-16.2v-1.2c1.6,0,2.6-0.1,2.6-3.1v-12c0-2.7-0.9-3.1-2.6-3.1v-1h8.1
				v1c-1.7,0-2.6,0.4-2.6,3.1v12C171.5,76.7,171.9,77.5,174.8,77.5z"/>
			<path d="M193.4,77.5c4.7,0,6.3-0.3,6.7-3.8v-0.1h1l-0.3,5.1h-16.2v-1.2c1.6,0,2.6-0.1,2.6-3.1v-12c0-2.7-0.9-3.1-2.6-3.1v-1h8.1
				v1c-1.7,0-2.6,0.4-2.6,3.1v12C190.1,76.7,190.5,77.5,193.4,77.5z"/>
			<path d="M208.8,68.8v5.9c0,2,0.1,2.7,3.7,2.7c4.4,0,5-0.2,5.7-3h0.9l-0.3,4.5h-15.4v-1.2c1.6,0,2.6-0.4,2.6-3.1v-12
				c0-2.8-1-3.1-2.6-3.1v-1h15.2l0.3,4.4h-1c-0.5-2.6-1-2.8-2.7-2.8h-6.2v7h3.1c2.6,0,3.6-0.3,3.6-2.3h0.9V71h-0.9
				c0-2.2-1-2.4-3.6-2.4h-3.3V68.8z"/>
			<path d="M238.6,58.6l0.3,4.9h-1c-0.4-2.9-3.3-4-5.9-4c-3.7,0-7.5,2.6-7.5,8.6s4.1,9.1,8,9.1c1.9,0,3.9-0.7,5.1-2.3l1,1
				c-1.7,2-4.4,3-7.2,3c-5.1,0-10.5-3.5-10.5-10.4c0-5.9,3.6-10.6,10.9-10.6c3,0,4.5,0.8,5,0.8c0.2,0,0.4,0,0.4-0.4h1.3V58.6z"/>
			<path d="M254.9,60.2h-3.6v14.5c0,2.7,1,3.1,2.6,3.1V79h-8.1v-1.2c1.9,0,2.6-0.6,2.6-3.1V60.2h-3.7c-2.8,0-2.6,0.7-3.1,2.8h-0.9
				l0.2-4.4H259l0.2,4.4h-1C257.6,60.4,257.3,60.2,254.9,60.2z"/>
			<path d="M269.3,77.7v1.2h-8.1v-1.2c1.8,0,2.6-0.6,2.6-3.1v-12c0-2.5-0.8-3.1-2.6-3.1v-1h8.1v1c-1.8,0-2.6,0.6-2.6,3.1v12
				C266.6,77.1,267.4,77.7,269.3,77.7z"/>
			<path d="M291.3,68.6c0,5.4-3.4,10.6-9.9,10.6c-6.5,0-10-5.4-10-10.6c0-5.2,3.3-10.3,9.9-10.3S291.3,63.4,291.3,68.6z M287.9,69.3
				c0-4.6-2.3-9.4-6.7-9.4c-3.8,0-6.4,3.1-6.4,8c0,4.8,2.6,9.9,6.9,9.9C285.5,77.6,287.9,74.2,287.9,69.3z"/>
			<path d="M301,77.7v1.2H294v-1.2c1.7,0,2.6-0.5,2.6-3.1v-12c0-2.9-1.2-3.1-2.6-3.1v-1h4.4l13,16.1v-12c0-2.4-0.8-3.1-2.6-3.1v-1
				h6.9v1c-1.7,0-2.5,0.6-2.5,3.1V79h-1.9l-13-16.1v11.5C298.4,77.3,299.3,77.7,301,77.7z"/>
		</g>
	</g>
</g>
<path class="st3" d="M1449.5,807.1H67.8c-10.8,0-19.6,8.8-19.6,19.6v310c0,10.8,8.8,19.6,19.6,19.6h1381.6
	c10.8,0,19.6-8.8,19.6-19.6v-310C1469.1,815.9,1460.3,807.1,1449.5,807.1z"/>
<g>
	<g>
		<path class="st4" d="M241.7,204.4H220v-2.9c4.1,0,6.9-0.7,6.9-8.3v-31.8c0-7.3-2.3-8.3-6.9-8.3v-2.7h25.4
			c10.1,0,14.7,6.3,14.7,13.2c0,7.8-6.1,15.9-17.8,15.9h-7.7v13.8c0,7.2,2.8,8.3,6.9,8.3v2.9H241.7z M252.5,164.9
			c0-5.4-4-10.4-11.8-10.4h-6.1v20.6h7.2C248.8,175.1,252.5,170.2,252.5,164.9z"/>
		<path class="st4" d="M294.1,205.2c-10.7,0-21.1-6.1-21.1-17.4v-26.5c0-7.8-2.8-8.3-6.9-8.3v-2.7h21.6v2.7c-4.2,0-6.9,1.4-6.9,8.3
			V186c0,9.3,7.3,14.5,15,14.5c7.8,0,15.9-5.7,15.9-17.4v-21.8c0-6.5-2.2-8.3-6.9-8.3v-2.7h18.9v2.7c-4.5,0-7,1.2-7,8.3v22.5
			C316.5,198.3,305.5,205.2,294.1,205.2z"/>
		<path class="st4" d="M372.8,189.5c0,7.3-5.7,14.9-16.2,14.9h-26.7v-2.9c4.8,0,6.9-1.2,6.9-8.3v-31.8c0-6.1-1.9-8.3-6.9-8.3v-2.7
			h25.4c10.3,0,14.9,5.9,14.9,12.4c0,5.8-3.9,11.1-13.1,12.6C367.8,175.7,372.8,182.8,372.8,189.5z M362.6,163.8
			c0-4.8-4-9.2-11.9-9.2h-6.1v18.8h7.2C358.9,173.3,362.6,168.5,362.6,163.8z M352.7,200.8c8.5,0,12.3-5.5,12.3-10.8
			c0-6.1-4.8-12.4-12.6-12.4h-7.7v15.6C344.7,199.1,345.7,200.8,352.7,200.8z"/>
		<path class="st4" d="M402.9,200.8c12.6,0,16.8-0.7,17.8-10l0.1-0.2h2.7l-0.8,13.8h-43.3v-2.9c4.1,0,6.9-0.3,6.9-8.3v-31.8
			c0-7.3-2.6-8.3-6.9-8.3v-2.7h21.6v2.7c-4.5,0-6.9,1.3-6.9,8.3v31.8C394.1,198.5,395.1,200.8,402.9,200.8z"/>
		<path class="st4" d="M450.8,201.5v2.9h-21.6v-2.9c4.7,0,6.9-1.6,6.9-8.3v-31.8c0-6.6-2.2-8.3-6.9-8.3v-2.7h21.6v2.7
			c-4.8,0-6.9,1.8-6.9,8.3v31.8C443.7,199.7,445.9,201.5,450.8,201.5z"/>
		<path class="st4" d="M503.8,150.3l0.9,13.2H502c-1.3-7.8-8.6-10.6-15.7-10.6c-9.8,0-19.9,7.1-19.9,23.1s10.9,24.5,21.4,24.5
			c5,0,10.3-2,13.8-6.1l2.8,2.8c-4.6,5.4-11.8,8.1-19.2,8.1c-13.8,0-27.9-9.1-27.9-27.6c0-15.6,9.6-28.2,29.2-28.2
			c8.2,0,12,2.1,13.5,2.1c0.6,0,1-0.1,1.2-1.2h2.7V150.3z"/>
		<path class="st4" d="M280,255.4h-9.4v38.5c0,7.2,2.7,8.3,6.9,8.3v2.9h-21.5v-2.9c4.9,0,6.9-1.8,6.9-8.3v-38.5h-9.8
			c-7.5,0-7.1,2.1-8.5,7.5h-2.5l0.5-11.8h48.1l0.6,11.8h-2.7C287.3,255.8,286.5,255.4,280,255.4z"/>
		<path class="st4" d="M311.3,278.3v15.6c0,5.2,0.2,7.3,9.7,7.3c11.9,0,13.3-0.6,15-8.2h2.6l-0.9,12.2h-41v-2.9c4.1,0,6.9-1,6.9-8.3
			v-31.8c0-7.5-2.7-8.3-6.9-8.3v-2.7h40.5l0.7,11.8H335c-1.4-7-2.7-7.5-7.2-7.5h-16.6v18.7h8.3c6.9,0,9.4-0.9,9.4-6.3h2.5v16.9h-2.5
			c0-5.8-2.9-6.4-9.4-6.4h-8.2V278.3z"/>
		<path class="st4" d="M353,261.7c0,14,29.2,9.3,29.2,29.8c0,9.1-6.9,14.5-18.7,14.5c-7.8,0-11.9-2.2-13-2.2s-1.5,0.8-1.5,1.4h-2.6
			l-1.2-13.6h2.8c0,0,1.2,10.9,15.2,10.9c5.2,0,11.2-3.1,11.2-8.7c0-15.1-28.7-11.3-28.7-29.6c0-9,6.9-14,17-14
			c6.7,0,11,2.6,12.7,2.6c0.8,0,1.6-0.4,1.6-1.7h2.5l0.9,13.2h-2.9c0,0-1.7-10.3-15.3-10.3C355.7,253.9,353,258.7,353,261.7z"/>
		<path class="st4" d="M426,255.4h-9.4v38.5c0,7.2,2.7,8.3,6.9,8.3v2.9H402v-2.9c4.9,0,6.9-1.8,6.9-8.3v-38.5h-9.8
			c-7.5,0-7.1,2.1-8.5,7.5h-2.5l0.5-11.8h48.1l0.6,11.8h-2.7C433.2,255.8,432.4,255.4,426,255.4z"/>
		<path class="st4" d="M450.8,261.7c0,14,29.2,9.3,29.2,29.8c0,9.1-6.9,14.5-18.7,14.5c-7.8,0-11.9-2.2-13-2.2s-1.5,0.8-1.5,1.4
			h-2.6l-1.2-13.6h2.8c0,0,1.2,10.9,15.2,10.9c5.2,0,11.2-3.1,11.2-8.7c0-15.1-28.7-11.3-28.7-29.6c0-9,6.9-14,17-14
			c6.7,0,11,2.6,12.7,2.6c0.8,0,1.6-0.4,1.6-1.7h2.5l0.9,13.2h-2.9c0,0-1.7-10.3-15.3-10.3C453.3,253.9,450.8,258.7,450.8,261.7z"/>
	</g>
</g>
<g>
	<path d="M518.4,413.8c-0.2-2.2-1.9-3.9-4.1-4c-2.2-0.1-4.1,1.4-4.5,3.6c-0.1,0.7-0.2,1.5-0.2,2.2c0,28.7,0,57.4,0,86.1
		c0,21.1,0,42.2,0,63.2c0,23,0,46.1,0,69.1c0,0.6-0.1,1.4-0.1,2.3c-43.5,0-86.5,0-129.6,0c0-0.2-0.1-0.3-0.1-0.5
		c1.8-0.6,3.7-1.4,5.5-1.9c8.5-2.3,16.9-4.7,25.5-6.6c5.8-1.3,11.7-1.9,17.4-2.9c14.8-2.4,29.7-3.4,44.6-4c6.3-0.3,12.6-0.3,19-0.4
		c2.8-0.1,4.4-1.7,4.6-4.5c0-0.9,0-1.8,0-2.7c0-39.6,0-79,0-118.6c0-34.2,0-68.6,0-102.8c0-0.8,0-1.7,0-2.5
		c-0.2-2.6-1.9-4.4-4.5-4.3c-15,0.6-30.1,0.9-45,2.2c-12.8,1.2-25.5,3-38.1,5.6c-11.1,2.2-22.2,5.6-33.1,8.9c-6.2,1.9-12,4.8-18,7.1
		l0,0c-6-2.3-11.9-5.2-18-7.1c-10.9-3.4-21.9-6.6-33.1-8.9c-12.6-2.5-25.4-4.4-38.1-5.6c-15-1.4-30-1.6-45-2.2
		c-2.6-0.1-4.3,1.7-4.5,4.3c-0.1,0.8,0,1.7,0,2.5c0,34.2,0,68.6,0,102.8c0,39.6,0,79,0,118.6c0,0.9,0,1.8,0,2.7
		c0.1,2.8,1.8,4.4,4.6,4.5c6.3,0.1,12.6,0.2,19,0.4c14.9,0.6,29.8,1.6,44.6,4c5.8,0.9,11.8,1.6,17.4,2.9c8.6,2,17,4.4,25.5,6.6
		c1.9,0.5,3.7,1.3,5.5,1.9c0,0.2-0.1,0.3-0.1,0.5c-43.1,0-86.3,0-129.6,0c0-0.9-0.1-1.7-0.1-2.3c0-23,0-46.1,0-69.1
		c0-21.1,0-42.2,0-63.2c0-28.7,0-57.4,0-86.1c0-0.7-0.1-1.5-0.2-2.2c-0.4-2.2-2.3-3.8-4.5-3.6c-2.2,0.1-4,1.9-4.1,4
		c-0.1,1.2-0.1,2.4-0.1,3.6c0,32.6,0,65.2,0,97.8c0,42.5,0,84.9,0,127.4c0,0.8,0,1.6,0,2.6c47.7,0,95,0,142.7,0
		c-1.6,3.5-0.5,6.1,2.2,8.2c0.8,0.6,1.7,1.3,2.6,1.7h13.4l0,0h13.5c0.9-0.4,1.8-1,2.6-1.7c2.7-2.1,3.7-4.6,2.2-8.2
		c47.7,0,95,0,142.7,0c0-1,0-1.9,0-2.6c0-42.5,0-84.9,0-127.4c0-32.6,0-65.2,0-97.8C518.4,416.1,518.4,415,518.4,413.8z
		 M354.1,557.7c-20.3-8.7-41-13.8-62.3-17.1c-21.2-3.4-42.6-4.7-64.2-5c0-5.5,0-10.6,0-15.7c5.9,0,11.8-0.2,17.6,0
		c21,0.8,41.9,3.3,62.5,7.7c15.1,3.3,29.9,7.6,44.1,13.8c1.8,0.7,2.5,1.8,2.4,3.7C354,549,354.1,553.1,354.1,557.7z M227.7,494.5
		c4.2,0,8.3-0.2,12.5,0c12.4,0.7,24.8,1.5,37.2,2.7c7.7,0.7,15.3,2,22.9,3.7c11.3,2.5,22.7,5.4,33.8,8.6c6.3,1.8,12.2,4.6,18.3,6.9
		c1.4,0.5,1.9,1.4,1.9,2.8c-0.1,4.3,0,8.5,0,13c-40.6-16.8-83.1-21.2-126.5-22C227.7,504.8,227.7,499.7,227.7,494.5z M227.6,485.2
		c0-5.5,0-10.6,0-16c4.4,0,8.7-0.2,12.9,0c11.7,0.7,23.3,1.5,34.9,2.6c6.8,0.6,13.8,1.9,20.6,3c16.7,2.8,33.1,7,48.8,13.1
		c2.6,1,5.2,2.2,7.9,3.5c0.6,0.3,1.4,1.2,1.4,1.7c0.1,4.5,0.1,9,0.1,13.9C313.6,490.5,271,486.1,227.6,485.2z M354.1,482.1
		c-40.7-16.7-83.2-21.2-126.4-21.9c0-5.4,0-10.6,0-16c0.6,0,1.3-0.2,1.8-0.1c15.3,0.9,30.7,1.6,45.9,2.9c17.4,1.6,34.6,4.9,51.4,10
		c8.6,2.6,16.9,6.1,25.4,9.2c1.4,0.5,1.9,1.4,1.9,2.8C354.1,473.2,354.1,477.4,354.1,482.1z M227.7,393.8c0.7,0,1.5-0.1,2.1-0.1
		c18.3,0.1,36.4,1.5,54.4,4c18.4,2.6,36.4,6.4,53.9,12.7c4.9,1.8,9.8,3.9,14.6,6c0.6,0.2,1.4,0.9,1.5,1.5c0.1,4.5,0.1,9.1,0.1,14
		c-40.6-16.8-83.1-21.2-126.5-22C227.7,404.2,227.7,399,227.7,393.8z M227.5,419.1c4.6,0,9-0.3,13.3,0c15.2,1.2,30.5,2,45.7,4
		c22.6,3,44.7,8.3,65.7,17.7c1.5,0.6,2.1,1.4,2,3c-0.1,4.2,0,8.4,0,12.9c-40.6-16.7-83.1-21.2-126.5-21.9c-0.1-0.8-0.1-1.5-0.1-2.1
		C227.5,428.2,227.5,423.6,227.5,419.1z M227.6,544.5c1.8,0,3.5,0,5.1,0c18.5,0.4,36.8,1.7,55.1,4.5c21.5,3.3,42.6,8.3,62.8,16.9
		c2.6,1.2,3.9,2.5,3.6,5.5c-0.3,3.5-0.1,7-0.1,10.6c0,0.1-0.1,0.2-0.3,0.5c-40.3-16.6-82.8-21.1-126.2-21.8
		C227.6,555.3,227.6,550.1,227.6,544.5z M354.1,633.2c-3.7-1.5-7-2.8-10.4-4.1c-12.1-4.5-24.5-7.9-37.1-10.4
		c-7.5-1.5-14.9-2.7-22.4-3.8c-18.4-2.6-36.7-3.8-55.3-4c-0.3,0-0.7-0.1-1.3-0.1c0-5.5,0-10.6,0-15.6c5.9,0,11.5-0.2,17.2,0
		c18,0.7,35.7,2.5,53.3,5.8c18.6,3.5,36.8,8.1,54.1,16.1c0.7,0.3,1.7,1.3,1.7,2C354.2,623.8,354.1,628.3,354.1,633.2z M354.2,596.6
		c-0.3,3.7-0.1,7.3-0.1,11.2c-40.6-16.8-83.2-21.2-126.5-22c0-5.4,0-10.5,0-16c3.7,0,7.2-0.2,10.8,0c11.2,0.6,22.6,0.9,33.8,2.3
		c13.8,1.8,27.5,4.2,41.2,6.9c12.8,2.5,25.1,6.7,37.1,11.9C353.1,592.2,354.5,593.4,354.2,596.6z M360.8,417.7
		c0-0.5,0.8-1.3,1.5-1.5c4.8-2.1,9.7-4.2,14.6-6c17.5-6.2,35.6-10.1,53.9-12.7c18.1-2.5,36.2-3.9,54.4-4c0.6,0,1.3,0.1,2.1,0.1
		c0,5.4,0,10.5,0,16c-43.4,0.8-85.8,5.2-126.5,22C360.7,426.8,360.7,422.3,360.8,417.7z M362.7,440.9c20.9-9.4,43-14.7,65.7-17.7
		c15.1-2,30.4-2.8,45.7-4c4.3-0.3,8.7,0,13.3,0c0,4.5,0,9.1,0,13.6c0,0.6-0.1,1.4-0.1,2.1c-43.3,0.8-85.9,5.2-126.5,21.9
		c0-4.5,0.1-8.7,0-12.9C360.6,442.3,361.2,441.5,362.7,440.9z M360.7,519.3c0-1.5,0.5-2.3,1.9-2.8c6.1-2.3,12.1-5.1,18.3-6.9
		c11.2-3.3,22.5-6.1,33.8-8.6c7.6-1.7,15.2-2.9,22.9-3.7c12.4-1.3,24.8-1.9,37.2-2.7c4.1-0.2,8.2,0,12.5,0c0,5.2,0,10.4,0,15.9
		c-43.4,0.8-85.9,5.2-126.5,22C360.7,527.8,360.8,523.5,360.7,519.3z M360.7,507.2c0-4.8-0.1-9.3,0.1-13.9c0-0.6,0.7-1.5,1.4-1.7
		c2.5-1.3,5.1-2.4,7.9-3.5c15.9-6.2,32.1-10.4,48.8-13.1c6.8-1.2,13.6-2.4,20.6-3c11.7-1,23.2-1.9,34.9-2.6c4.2-0.3,8.5,0,12.9,0
		c0,5.2,0,10.5,0,16C443.7,486.1,401.3,490.5,360.7,507.2z M362.5,466.1c8.5-3,16.8-6.6,25.4-9.2c16.8-5.1,34-8.5,51.4-10
		c15.2-1.4,30.7-2,45.9-2.9c0.6,0,1.2,0.1,1.8,0.1c0,5.4,0,10.6,0,16c-43.3,0.8-85.7,5.2-126.4,21.9c0-4.6,0.1-8.8,0-13
		C360.6,467.5,361.1,466.6,362.5,466.1z M363.1,541.3c14.2-6.3,29-10.6,44.1-13.8c20.6-4.4,41.4-6.7,62.5-7.7c5.9-0.2,11.7,0,17.6,0
		c0,5.1,0,10.3,0,15.7c-21.6,0.3-43,1.7-64.2,5c-21.2,3.4-42,8.3-62.3,17.1c0-4.5,0.1-8.6,0-12.6
		C360.6,543.1,361.3,542.1,363.1,541.3z M364.3,565.9c20.2-8.6,41.3-13.5,62.8-16.9c18.3-2.8,36.6-4.1,55.1-4.5c1.7,0,3.4,0,5.1,0
		c0,5.6,0,10.8,0,16.2c-43.4,0.7-85.8,5.2-126.2,21.8c-0.1-0.3-0.3-0.4-0.3-0.5c0-3.6,0.2-7.1-0.1-10.6
		C360.4,568.4,361.5,567.1,364.3,565.9z M364.4,591c12-5,24.4-9.2,37.1-11.9c13.6-2.7,27.3-5.1,41.2-6.9c11.1-1.5,22.5-1.7,33.8-2.3
		c3.6-0.2,7.1,0,10.8,0c0,5.4,0,10.6,0,16c-43.3,0.8-85.9,5.2-126.5,22c0-3.9,0.3-7.7-0.1-11.2C360.3,593.4,361.8,592.2,364.4,591z
		 M371.1,629.1c-3.4,1.3-6.8,2.6-10.4,4.1c0-4.9-0.1-9.4,0.1-14.1c0-0.7,0.9-1.6,1.7-2c17.2-8.1,35.5-12.6,54.1-16.1
		c17.6-3.3,35.5-5,53.3-5.8c5.7-0.2,11.4,0,17.2,0c0,5,0,10.2,0,15.6c-0.5,0-0.8,0.1-1.3,0.1c-18.5,0.3-37,1.5-55.3,4
		c-7.5,1-15,2.3-22.4,3.8C395.7,621.3,383.2,624.6,371.1,629.1z"/>
	<g>
		<path d="M384.8,531.6c-1.5,0-2.8-0.6-4-1.8c-2.5-2.7-1.2-5.8-0.6-6.9c2.3-5.1,4.7-10.2,7-15.3l3.4-7.5c2.6-5.8,5.2-11.5,7.9-17.2
			c0.5-1.3,1.4-2.4,2.4-3.4c10.4-10.1,20.8-20.2,31.2-30.1c6.9-6.7,13.9-13.3,20.7-20.1c9.2-8.9,18.4-17.8,27.6-26.8l14.7-14.3
			c0.5-0.5,1.3-0.8,2-0.8c0.1-0.6,0.4-1.3,0.9-1.8l4.1-4c0.5-0.4,1-0.7,1.7-0.8c0.1-0.6,0.4-1.3,0.9-1.7l4.1-3.9
			c0.6-0.5,1.4-0.8,2.2-0.8l0,0c0.4,0,0.7,0.1,1.2,0.2c-0.3-1-0.2-2.2,0.5-3c0.1-0.1,0.2-0.2,0.2-0.3c0.2-0.3,0.5-0.6,0.8-1l2.1-2
			c2.6-2.5,5.1-5,7.8-7.5c2.3-2.2,5.1-3.4,8.1-3.4c3,0,6,1.4,8.3,3.8c4.9,5,10,10.2,14.9,15.4c4.5,4.6,4.4,11.7-0.2,16.2
			c-2.5,2.5-5.1,5-7.7,7.5l-2.3,2.2c-0.3,0.3-0.7,0.6-1,0.8l-0.3,0.2c-0.6,0.4-1.3,0.7-2,0.7c-0.4,0-0.7-0.1-1.2-0.2
			c0.1,0.3,0.2,0.7,0.2,1.2c0,0.8-0.3,1.7-0.9,2.2l-4.1,3.9c-0.6,0.5-1.4,0.8-2.2,0.8c-0.1,1.3-0.8,2.4-2.1,3.4
			c-0.5,0.4-0.9,0.8-1.5,1.5c-0.3,0.3-0.6,0.6-0.9,0.9c-0.5,0.5-1.3,0.8-1.9,0.8c-0.1,0.7-0.4,1.4-0.9,1.9l-4.8,4.6
			c0,0-3.7,3.6-4.6,4.4l-64.8,62.7c-6.1,5.9-12.4,12-18.5,18c-1.9,1.9-4,3.3-6.4,4.3c-9.6,4-19.3,8-28.8,12l-9.8,4.1
			c-0.1,0-0.5,0.2-0.5,0.2C387.2,531.1,386.1,531.6,384.8,531.6z M400.1,506c2.2,1.5,4.1,3.4,5.5,5.6l19.3-8c-1-2.3-3.1-3.5-7.1-4.2
			c-1.2-0.2-2.1-1-2.4-2.2c-0.1-0.3-0.1-0.5-0.1-0.8c-0.8-0.3-1.6-0.9-1.9-1.8c-0.3-0.8-0.6-1.6-0.8-2.4c-0.5-1.4-0.9-2.7-1.6-3.6
			c-0.4-0.5-1.3-0.9-2.1-1.4c-2.7,5.9-5.4,11.8-8.1,17.6L400.1,506z"/>
		<g>
			<path class="st5" d="M531.7,360.5c2.1,0,4.3,0.9,6.1,2.8c5,5.1,10,10.3,14.9,15.4c3.3,3.5,3.3,8.4-0.1,11.8
				c-3.3,3.3-6.6,6.4-10,9.7c-0.3,0.3-0.7,0.5-1.2,0.9c-8.8-9.1-17.6-18.2-26.5-27.3c0.3-0.4,0.6-0.7,0.9-1c3.3-3.1,6.5-6.3,9.9-9.4
				C527.6,361.3,529.7,360.5,531.7,360.5 M510.9,377.5c8.8,9.1,17.6,18.3,26.6,27.4c-1.4,1.3-2.6,2.5-4.1,3.9
				c-8.8-9.1-17.6-18.3-26.6-27.4C508.3,380.1,509.6,378.9,510.9,377.5 M504.3,384c0.9,0.9,1.8,1.9,2.7,2.8
				c7.5,7.8,14.9,15.4,22.5,23.2c1.2,1.2,1.3,1.9,0,2.9c-0.9,0.7-1.7,1.6-2.6,2.5c-8.9-9.2-17.7-18.4-26.6-27.5
				C501.6,386.6,502.8,385.4,504.3,384 M497.3,390.6c4.1,4.3,8.1,8.4,12.1,12.5c-31.1,30.1-62.1,60.2-93.2,90.3
				c-0.9-2.4-1.5-4.9-2.9-6.7c-1.3-1.6-3.6-2.3-5.4-3.4c0,0,0,0-0.1,0c-0.3,0-0.8,0.4-1,0.7c-3.6,7.7-7,15.4-10.7,23.4
				c3.8,1.7,6.5,4.3,8.1,8.2c8.2-3.4,16.4-6.7,24.5-10.1c-0.7-6-4.8-8.2-10.3-9.2c31.3-30.3,62.5-60.5,93.6-90.6
				c4,4.1,8,8.2,12.1,12.5c-1.6,1.6-3.1,3-4.8,4.6c-1.6,1.5-3,2.9-4.6,4.4c-19.7,19.1-39.5,38.2-59.1,57.2
				c-8.1,7.8-16.2,15.6-24.3,23.5c-1.6,1.6-3.3,2.7-5.4,3.6c-12.9,5.4-25.7,10.7-38.5,16.1c-0.2,0.1-0.4,0.2-0.6,0.3
				c-0.6,0.3-1.2,0.5-1.8,0.5c-0.5,0-1.2-0.2-1.7-0.7c-1-1.2-0.6-2.3-0.1-3.5c2.3-5.1,4.7-10.2,7-15.3c3.8-8.2,7.5-16.5,11.2-24.7
				c0.4-0.8,1-1.8,1.7-2.4c17.3-16.8,34.6-33.5,51.9-50.2c13.2-12.8,26.5-25.6,39.7-38.5C495.5,392.4,496.2,391.6,497.3,390.6
				 M389.6,521.5c3.5-1.5,6.5-2.7,9.7-4c-0.7-2.8-2.6-4.5-5.4-5.5C392.4,515.2,391,518.2,389.6,521.5 M531.7,354.2
				c-3.7,0-7.3,1.5-10.2,4.3c-2.6,2.5-5.2,5-7.8,7.6l-2.1,2c-0.5,0.5-0.9,0.9-1.2,1.4c-0.1,0.1-0.1,0.2-0.2,0.2
				c-0.5,0.6-0.8,1.3-1.2,2c-0.9,0.3-1.8,0.7-2.6,1.5l-3.7,3.5l-0.4,0.4c-0.4,0.4-0.8,0.9-1.2,1.5c-0.5,0.3-1,0.6-1.5,1l-2.1,2.1
				l-2,1.9c-0.4,0.4-0.8,0.9-1.2,1.5c-0.6,0.3-1.3,0.7-1.8,1.3l-0.9,0.8l-1.7,1.6l-12.2,12c-9.1,8.8-18.3,17.6-27.4,26.6
				c-6.9,6.7-13.8,13.3-20.7,19.9c-10.4,10.1-20.8,20.2-31.2,30.2c-1.3,1.3-2.3,2.7-3,4.3c-2.6,5.8-5.4,11.5-7.9,17.2
				c-1.2,2.5-2.2,4.9-3.4,7.5c-2.3,5.1-4.6,10.2-7,15.3c-2.3,5-0.6,8.4,1.2,10.4c1.7,1.8,3.9,2.7,6.2,2.7c1.9,0,3.4-0.6,4.4-1l0,0
				c0.2-0.1,0.3-0.1,0.5-0.2c3.3-1.4,6.5-2.7,9.8-4.1c9.4-4,19.2-8,28.8-12c2.7-1.2,5.1-2.7,7.3-4.9c6.1-6,12.4-12.1,18.5-18
				l5.7-5.6c19.7-19.1,39.5-38.2,59.1-57.2c0.8-0.8,1.7-1.7,2.5-2.4c0.6-0.6,1.4-1.3,2-2c1.2-1,2.2-2.1,3.4-3.3l1.5-1.4
				c0.5-0.5,0.9-1,1.3-1.7c0.6-0.3,1.2-0.6,1.7-1.2c0.3-0.3,0.6-0.6,0.9-0.9c0.5-0.5,0.9-0.9,1.3-1.2c1.3-1,2.1-2.1,2.6-3.1
				c0.6-0.3,1.3-0.7,1.9-1.3l2.9-2.8l1.2-1.2c0.7-0.7,1.3-1.6,1.6-2.5c0.7-0.2,1.5-0.6,2.1-1c0.1-0.1,0.2-0.1,0.3-0.2
				c0.3-0.2,0.8-0.6,1.3-1l2.3-2.2c2.5-2.4,5.1-4.9,7.7-7.5c5.9-5.8,6-14.6,0.2-20.6c-4.9-5.1-10-10.4-14.9-15.4
				C539.4,355.9,535.6,354.2,531.7,354.2L531.7,354.2z M404,505c1.8-4,3.6-7.9,5.4-11.7c0.3,0.7,0.5,1.7,0.9,2.5c0.4,1,1.2,2,2,2.6
				c0.7,2.1,2.5,3.7,4.7,4.1c0.5,0.1,1,0.2,1.5,0.3l-5,2.1l-6.8,2.8C405.8,506.7,404.9,505.8,404,505L404,505z"/>
		</g>
	</g>
	<path class="st5" d="M411.6,490.6c0,0,5.5,6.9,5.8,7.8c0.3,0.8,1.9,6.7,0,6.2c-1.9-0.5-11.4,1.9-11.4,1.9s-3.5-3.5-3.5-3.9
		c0-0.4,1.9-9.7,1.9-9.7L411.6,490.6z"/>
</g>
<g>
	<g>
		<path class="st6" d="M1483,724.1H800c-6.6,0-12.1-5.4-12.1-12.1V96.5c0-6.6,5.4-12.1,12.1-12.1h682.9c6.6,0,12.1,5.4,12.1,12.1
			V712C1495.1,718.6,1489.6,724.1,1483,724.1z"/>
		<path class="st1" d="M787.9,137.5V57.6c0-5.1,4.2-9.2,9.2-9.2h251.2c5.1,0,9.2,4.2,9.2,9.2v28.6"/>
		<g>
			<g>
				<path d="M799.3,59v-1h10.3c6.8,0,9.9,5.4,9.9,10.3c0,5.5-4,10.1-10.1,10.1h-10.1v-1.2c1.9,0,2.6-0.5,2.6-3.1v-12
					C801.9,59.5,801,59,799.3,59z M808.1,76.9c4.5,0,7.9-1.7,7.9-8c0-3.6-0.7-9.3-8.4-9.3h-2.7v14.5
					C804.7,76.1,805.1,76.9,808.1,76.9z"/>
				<path d="M834.3,70.7H827l-1.7,4.1c-0.2,0.5-0.5,1-0.5,1.5c0,0.6,0.9,0.9,2.3,0.9v1.2h-6.9v-1.2c1.5,0,2.7-0.5,3.4-2.3l6.9-17.1
					h1.7l7.2,18c0.5,1.4,1.3,1.6,2.6,1.6v1.2h-8v-1.2c1.7,0,2.2-0.4,2.2-1.3c0-0.5-0.2-1.3-0.4-1.8L834.3,70.7z M833.6,69.1l-3-7.6
					l-3,7.6H833.6z"/>
				<path d="M854.4,59.6h-3.6v14.5c0,2.7,1,3.1,2.6,3.1v1.2h-8.1v-1.2c1.9,0,2.6-0.6,2.6-3.1V59.6h-3.7c-2.8,0-2.6,0.7-3.1,2.8h-0.9
					l0.2-4.4h18.1l0.2,4.4h-1C857.1,59.8,856.8,59.6,854.4,59.6z"/>
				<path d="M871.2,70.7h-7.3l-1.7,4.1c-0.2,0.5-0.5,1-0.5,1.5c0,0.6,0.9,0.9,2.3,0.9v1.2H857v-1.2c1.5,0,2.7-0.5,3.4-2.3l6.9-17.1
					h1.7l7.2,18c0.5,1.4,1.3,1.6,2.6,1.6v1.2h-8v-1.2c1.7,0,2.2-0.4,2.2-1.3c0-0.5-0.2-1.3-0.4-1.8L871.2,70.7z M870.5,69.1l-3-7.6
					l-3,7.6H870.5z"/>
				<path d="M903.4,58l0.3,4.9h-1c-0.5-2.9-3.3-4-5.9-4c-3.7,0-7.5,2.6-7.5,8.6c0,6,4.1,9.1,8,9.1c1.9,0,3.9-0.7,5.1-2.3l1,1
					c-1.7,2-4.4,3-7.2,3c-5.1,0-10.5-3.5-10.5-10.4c0-5.9,3.6-10.6,10.9-10.6c3,0,4.5,0.8,5,0.8c0.2,0,0.4,0,0.4-0.4h1.3V58z"/>
				<path d="M916.5,78.6c-4,0-7.9-2.3-7.9-6.5v-9.9c0-2.9-1-3.1-2.6-3.1v-1h8.1v1c-1.6,0-2.6,0.5-2.6,3.1v9.2c0,3.5,2.7,5.5,5.7,5.5
					c2.9,0,6-2.1,6-6.5v-8.2c0-2.4-0.8-3.1-2.6-3.1v-1h7v1c-1.7,0-2.6,0.4-2.6,3.1v8.4C924.9,76.1,920.7,78.6,916.5,78.6z"/>
				<path d="M938,78.3H930v-1.2c1.7,0,2.6-0.6,2.6-3.1V62c0-2.5-0.7-3.1-2.6-3.1v-1h9.6c3.8,0,5.5,2.3,5.5,4.9
					c0,2.3-1.5,4.8-4.3,5.7l5,6.8c1.4,1.8,2,1.8,2.9,1.8h0.1v1.2h-4.3l-7-9.3h-1.8V74c0,2.6,1,3.1,2.6,3.1v1.2H938z M942.1,63.5
					c0-2-1.5-3.9-4.4-3.9h-2.3v7.8h2.7C940.8,67.3,942.1,65.5,942.1,63.5z"/>
				<path d="M961.8,70.7h-7.3l-1.7,4.1c-0.2,0.5-0.5,1-0.5,1.5c0,0.6,0.9,0.9,2.3,0.9v1.2h-6.9v-1.2c1.5,0,2.7-0.5,3.4-2.3l6.9-17.1
					h1.7l7.2,18c0.5,1.4,1.3,1.6,2.6,1.6v1.2h-8v-1.2c1.7,0,2.2-0.4,2.2-1.3c0-0.5-0.2-1.3-0.4-1.8L961.8,70.7z M961.1,69.1l-3-7.6
					l-3,7.6H961.1z"/>
				<path d="M981.8,59.6h-3.6v14.5c0,2.7,1,3.1,2.6,3.1v1.2h-8.1v-1.2c1.9,0,2.6-0.6,2.6-3.1V59.6h-3.7c-2.8,0-2.6,0.7-3.1,2.8h-0.9
					l0.2-4.4h18.1l0.2,4.4h-1C984.5,59.8,984.2,59.6,981.8,59.6z"/>
				<path d="M996.2,77.2v1.2h-8.1v-1.2c1.8,0,2.6-0.6,2.6-3.1v-12c0-2.5-0.8-3.1-2.6-3.1v-1h8.1v1c-1.8,0-2.6,0.6-2.6,3.1v12
					C993.6,76.6,994.4,77.2,996.2,77.2z"/>
				<path d="M1018.3,68c0,5.4-3.4,10.6-9.9,10.6c-6.5,0-10-5.4-10-10.6s3.3-10.3,9.9-10.3S1018.3,62.7,1018.3,68z M1014.9,68.7
					c0-4.6-2.3-9.4-6.7-9.4c-3.8,0-6.4,3.1-6.4,8s2.6,9.9,6.9,9.9C1012.5,77.1,1014.9,73.5,1014.9,68.7z"/>
				<path d="M1027.9,77.2v1.2h-6.9v-1.2c1.7,0,2.6-0.5,2.6-3.1v-12c0-2.9-1.2-3.1-2.6-3.1v-1h4.4l13,16.1V62c0-2.4-0.8-3.1-2.6-3.1
					v-1h6.9v1c-1.7,0-2.5,0.6-2.5,3.1v16.5h-1.9l-13-16.1V74C1025.4,76.7,1026.3,77.2,1027.9,77.2z"/>
			</g>
		</g>
	</g>
	<path class="st7" d="M1446,247.8H836.9c-8.4,0-15.2-6.8-15.2-15.2v-77.8c0-8.4,6.8-15.2,15.2-15.2H1446c8.4,0,15.2,6.8,15.2,15.2
		v77.8C1461.3,241,1454.4,247.8,1446,247.8z"/>
	<path class="st7" d="M1446,445H836.9c-8.4,0-15.2-6.8-15.2-15.2v-77.8c0-8.4,6.8-15.2,15.2-15.2H1446c8.4,0,15.2,6.8,15.2,15.2
		v77.8C1461.3,438.1,1454.4,445,1446,445z"/>
	<path class="st7" d="M1446,642.1H836.9c-8.4,0-15.2-6.8-15.2-15.2v-77.8c0-8.4,6.8-15.2,15.2-15.2H1446c8.4,0,15.2,6.8,15.2,15.2
		v77.8C1461.3,635.3,1454.4,642.1,1446,642.1z"/>
	<polygon class="st7" points="1126.3,321.2 1156.8,272.3 1139.9,272.3 1112.5,272.3 1095.7,272.3 	"/>
	<polygon class="st7" points="1123.1,520.6 1153.6,471.8 1136.8,471.8 1109.4,471.8 1092.6,471.8 	"/>
	<g>
		<g>
			<path class="st4" d="M1051.9,157l0.5,7.2h-1.6c-0.7-4.2-4.7-5.8-8.6-5.8c-5.4,0-11,3.9-11,12.7c0,8.8,6,13.4,11.8,13.4
				c2.7,0,5.7-1.2,7.6-3.4l1.6,1.6c-2.5,2.9-6.5,4.4-10.6,4.4c-7.6,0-15.4-5-15.4-15.2c0-8.6,5.2-15.5,16.1-15.5
				c4.5,0,6.6,1.2,7.5,1.2c0.3,0,0.6,0,0.6-0.6H1051.9z"/>
			<path class="st4" d="M1074.1,175.6h-10.8l-2.4,6c-0.4,0.7-0.8,1.6-0.8,2.2c0,0.8,1.4,1.4,3.4,1.4v1.6h-10.2v-1.6
				c2.1,0,3.9-0.7,5-3.5l10.2-25.2h2.5l10.6,26.2c0.7,2,1.8,2.3,3.9,2.3v1.6h-11.8V185c2.4,0,3.3-0.7,3.3-1.8c0-0.7-0.3-1.9-0.7-2.7
				L1074.1,175.6z M1073.1,173.3l-4.5-11.1l-4.4,11.1H1073.1z"/>
			<path class="st4" d="M1103.5,159.3h-5.2v21.2c0,4,1.5,4.6,3.8,4.6v1.6h-11.9v-1.6c2.7,0,3.9-0.9,3.9-4.6v-21.2h-5.4
				c-4.1,0-3.9,1.2-4.6,4.1h-1.4l0.3-6.5h26.5l0.4,6.5h-1.6C1107.5,159.6,1107.1,159.3,1103.5,159.3z"/>
			<path class="st4" d="M1120.7,171.9v8.6c0,2.8,0.1,4,5.4,4c6.5,0,7.3-0.3,8.3-4.5h1.5l-0.5,6.7h-22.6v-1.6c2.3,0,3.9-0.6,3.9-4.6
				V163c0-4.1-1.6-4.6-3.9-4.6v-1.5h22.4l0.4,6.5h-1.6c-0.7-3.9-1.5-4.1-4-4.1h-9.1v10.3h4.6c3.9,0,5.2-0.5,5.2-3.5h1.4v9.2h-1.4
				c0-3.1-1.6-3.5-5.2-3.5L1120.7,171.9L1120.7,171.9z"/>
			<path class="st4" d="M1162.3,157.6c0.4,0,0.6,0,0.6-0.6h1.6l0.3,6.5h-1.4c-0.7-2.4-2.7-5-8.8-5c-6.8,0-10.7,6.2-10.7,12.9
				c0,8.8,5.2,13.3,12.3,13.3c1.2,0,2.6-0.4,4.2-1.4v-5.2c0-3.1-0.9-4.4-3.7-4.4v-1.6h11.8v1.5c-2.2,0-3.9,0.8-3.9,4.5v6.9
				c-4.5,1.4-6.9,2.1-10.2,2.1c-11.1,0-15.4-8.5-15.4-15.2c0-8.8,5.7-15.5,16.1-15.5C1159,156.5,1161.3,157.6,1162.3,157.6z"/>
			<path class="st4" d="M1200.3,171.6c0,7.8-4.9,15.5-14.5,15.5c-9.7,0-14.6-7.8-14.6-15.6c0-7.7,4.7-15.1,14.6-15.1
				C1195.6,156.5,1200.3,163.9,1200.3,171.6z M1195.2,172.6c0-6.8-3.4-13.9-9.8-13.9c-5.6,0-9.4,4.6-9.4,11.7
				c0,7,3.9,14.5,10.1,14.5C1191.7,184.9,1195.2,179.8,1195.2,172.6z"/>
			<path class="st4" d="M1216.1,186.7h-12v-1.6c2.5,0,3.9-0.8,3.9-4.6V163c0-3.7-1.2-4.6-3.9-4.6v-1.5h14.1c5.6,0,8.1,3.5,8.1,7.2
				c0,3.4-2.1,7-6.3,8.3l7.3,10c2,2.5,2.8,2.6,4.2,2.6h0.1v1.6h-6.4l-10.4-13.8h-2.7v7.6c0,3.9,1.6,4.6,3.9,4.6v1.7H1216.1z
				 M1222.1,165c0-2.9-2.2-5.8-6.5-5.8h-3.4v11.3h4C1220.1,170.6,1222.1,167.9,1222.1,165z"/>
			<path class="st4" d="M1248.8,158.5V157h10.3v1.5l0,0c-1.8,0-2.5,0-4.8,3.9l-7.3,12.2v6.1c0,4,1.6,4.6,3.9,4.6v1.6h-11.9v-1.6
				c2.5,0,3.9-0.4,3.9-4.6v-6.1l-8.3-13.9c-0.8-1.7-2.3-2.2-4-2.2h-0.1V157h12.9v1.5h-0.1c-2.3,0-3.7,0.4-3.7,1.6
				c0,0.6,0.4,1.6,0.8,2.3l5.7,9.3l4.5-7.3c0.7-1.4,1.9-3,1.9-4.2C1252.2,159.1,1250.9,158.5,1248.8,158.5L1248.8,158.5z"/>
			<path class="st4" d="M1034.1,213.9v8.8c0,3.8,0.5,4.5,3.4,4.5v1.5H1026v-1.6c2.3,0,3.9-0.6,3.9-4.6V205c0-4.1-1.6-4.6-3.9-4.6
				v-1.5h22.4l0.4,6.5h-1.6c-1.2-4-1.3-4.1-5-4.1h-8v10.3h4.2c4.2,0,5.4,0,5.6-3.5h1.4v9.2h-1.4c-0.4-3.4-1.8-3.5-5.1-3.5
				L1034.1,213.9L1034.1,213.9z"/>
			<path class="st4" d="M1064.4,227.1v1.6h-12v-1.6c2.6,0,3.9-0.8,3.9-4.6V205c0-3.7-1.2-4.6-3.9-4.6v-1.5h12v1.5
				c-2.6,0-3.9,0.9-3.9,4.6v17.5C1060.7,226.2,1061.8,227.1,1064.4,227.1z"/>
			<path class="st4" d="M1081.2,226.7c6.9,0,9.2-0.4,9.9-5.5v-0.1h1.5l-0.4,7.6h-23.8v-1.6c2.3,0,3.9-0.2,3.9-4.6V205
				c0-4-1.5-4.6-3.9-4.6v-1.5h12v1.5c-2.5,0-3.9,0.7-3.9,4.6v17.5C1076.4,225.4,1076.9,226.7,1081.2,226.7z"/>
			<path class="st4" d="M1112,201.3h-5.2v21.2c0,4,1.5,4.6,3.8,4.6v1.6h-11.9v-1.6c2.7,0,3.9-0.9,3.9-4.6v-21.2h-5.4
				c-4.1,0-3.9,1.2-4.6,4.1h-1.4l0.3-6.5h26.5l0.4,6.5h-1.6C1116,201.6,1115.6,201.3,1112,201.3z"/>
			<path class="st4" d="M1129.2,213.9v8.6c0,2.8,0.1,4,5.4,4c6.5,0,7.3-0.3,8.3-4.5h1.5l-0.5,6.7h-22.6v-1.6c2.3,0,3.9-0.6,3.9-4.6
				V205c0-4.1-1.6-4.6-3.9-4.6v-1.5h22.4l0.4,6.5h-1.6c-0.7-3.9-1.5-4.1-4-4.1h-9.1v10.3h4.6c3.9,0,5.2-0.5,5.2-3.5h1.4v9.2h-1.4
				c0-3.1-1.6-3.5-5.2-3.5L1129.2,213.9L1129.2,213.9z"/>
			<path class="st4" d="M1159.5,228.7h-12v-1.6c2.5,0,3.9-0.8,3.9-4.6V205c0-3.7-1.2-4.6-3.9-4.6v-1.5h14c5.6,0,8.1,3.5,8.1,7.2
				c0,3.4-2.1,7-6.3,8.3l7.3,10c2,2.5,2.8,2.6,4.2,2.6h0.1v1.6h-6.4l-10.4-13.8h-2.7v7.6c0,3.9,1.6,4.6,3.9,4.6v1.7H1159.5z
				 M1165.5,207c0-2.9-2.2-5.8-6.5-5.8h-3.4v11.3h4C1163.5,212.6,1165.5,209.9,1165.5,207z"/>
			<path class="st4" d="M1188.6,227.1v1.6h-12v-1.6c2.6,0,3.9-0.8,3.9-4.6V205c0-3.7-1.2-4.6-3.9-4.6v-1.5h12v1.5
				c-2.6,0-3.9,0.9-3.9,4.6v17.5C1184.7,226.2,1186,227.1,1188.6,227.1z"/>
			<path class="st4" d="M1202.7,227.1v1.6h-10.2v-1.6c2.5,0,3.9-0.8,3.9-4.6V205c0-4.2-1.7-4.6-3.9-4.6v-1.5h6.4l19.1,23.5v-17.5
				c0-3.6-1.2-4.6-3.8-4.6v-1.5h10.2v1.5c-2.5,0-3.7,0.9-3.7,4.6V229h-2.7l-19.1-23.6v17C1198.9,226.4,1200.3,227.1,1202.7,227.1z"
				/>
			<path class="st4" d="M1251.5,199.6c0.4,0,0.6,0,0.6-0.6h1.6l0.3,6.5h-1.4c-0.7-2.4-2.7-5-8.8-5c-6.8,0-10.7,6.2-10.7,12.9
				c0,8.8,5.2,13.3,12.3,13.3c1.2,0,2.6-0.4,4.2-1.4v-5.2c0-3.1-0.9-4.4-3.7-4.4v-1.6h11.8v1.5c-2.2,0-3.9,0.8-3.9,4.5v6.9
				c-4.5,1.4-6.9,2.1-10.2,2.1c-11.1,0-15.4-8.5-15.4-15.2c0-8.8,5.7-15.5,16.1-15.5C1248.3,198.5,1250.6,199.6,1251.5,199.6z"/>
		</g>
	</g>
	<g>
		<g>
			<path class="st4" d="M1030.8,576.4c0,7.7,16.1,5.1,16.1,16.4c0,5-3.8,8-10.3,8c-4.2,0-6.5-1.2-7.1-1.2s-0.7,0.4-0.7,0.7h-1.5
				l-0.6-7.5h1.6c0,0,0.6,6,8.4,6c2.8,0,6.2-1.8,6.2-4.8c0-8.3-15.7-6.2-15.7-16.3c0-4.9,3.8-7.7,9.3-7.7c3.7,0,6.1,1.5,6.9,1.5
				c0.4,0,0.8-0.2,0.8-0.9h1.4l0.5,7.2h-1.6c0,0-0.9-5.7-8.4-5.7C1032.2,572.1,1030.8,574.7,1030.8,576.4z"/>
			<path class="st4" d="M1069.1,589.1h-10.8l-2.4,6c-0.4,0.7-0.8,1.6-0.8,2.2c0,0.8,1.4,1.4,3.4,1.4v1.6h-10.2v-1.6
				c2.1,0,3.9-0.7,5-3.5l10.2-25.2h2.5l10.6,26.2c0.7,2,1.8,2.3,3.9,2.3v1.6h-11.8v-1.6c2.4,0,3.3-0.7,3.3-1.8
				c0-0.7-0.3-1.9-0.7-2.7L1069.1,589.1z M1068.1,586.8l-4.5-11.1l-4.4,11.1H1068.1z"/>
			<path class="st4" d="M1119.7,570.5v1.5c-2.5,0-3.8,0.9-3.8,4.6v17.5c0,4,1.5,4.6,3.7,4.6v1.6H1108v-1.6c2.7,0,3.8-0.9,3.8-4.6
				v-18.6l-10.5,25.2h-2.7l-10.1-25V594c0,4,1.2,4.6,3.9,4.6v1.6h-10.3v-1.6c2,0,3.9-0.2,3.9-4.6v-17.5c0-3.4-1-4.6-3.9-4.6v-1.5
				h8.8l10,24.9l10.4-24.9h8.4V570.5z"/>
			<path class="st4" d="M1135.7,600.2h-12v-1.6c2.3,0,3.9-0.4,3.9-4.6v-17.5c0-4-1.3-4.6-3.9-4.6v-1.5h14c5.6,0,8.1,3.5,8.1,7.2
				c0,4.2-3.4,8.7-9.8,8.7h-4.2v7.6c0,4,1.6,4.6,3.9,4.6V600.2L1135.7,600.2z M1141.7,578.6c0-2.9-2.2-5.8-6.5-5.8h-3.4v11.3h4
				C1139.7,584.2,1141.7,581.4,1141.7,578.6z"/>
			<path class="st4" d="M1162.1,598.3c6.9,0,9.2-0.4,9.9-5.5v-0.1h1.5l-0.4,7.6h-23.8v-1.6c2.3,0,3.9-0.2,3.9-4.6v-17.5
				c0-4-1.5-4.6-3.9-4.6v-1.5h12v1.5c-2.5,0-3.9,0.7-3.9,4.6v17.5C1157.2,597.1,1157.8,598.3,1162.1,598.3z"/>
			<path class="st4" d="M1188.4,598.6v1.6h-12v-1.6c2.6,0,3.9-0.8,3.9-4.6v-17.5c0-3.7-1.2-4.6-3.9-4.6v-1.5h12v1.5
				c-2.6,0-3.9,0.9-3.9,4.6V594C1184.5,597.7,1185.8,598.6,1188.4,598.6z"/>
			<path class="st4" d="M1202.5,598.6v1.6h-10.2v-1.6c2.5,0,3.9-0.8,3.9-4.6v-17.5c0-4.2-1.7-4.6-3.9-4.6v-1.5h6.4l19.1,23.5v-17.5
				c0-3.6-1.2-4.6-3.8-4.6v-1.5h10.2v1.5c-2.5,0-3.7,0.9-3.7,4.6v24.1h-2.7l-19.1-23.6v17C1198.7,597.9,1200.1,598.6,1202.5,598.6z"
				/>
			<path class="st4" d="M1251.3,571.1c0.4,0,0.6,0,0.6-0.6h1.6l0.3,6.5h-1.4c-0.7-2.4-2.7-5-8.8-5c-6.8,0-10.7,6.2-10.7,12.9
				c0,8.8,5.2,13.3,12.3,13.3c1.2,0,2.6-0.4,4.2-1.4v-5.2c0-3.1-0.9-4.4-3.7-4.4v-1.6h11.8v1.5c-2.2,0-3.9,0.8-3.9,4.5v6.9
				c-4.5,1.4-6.9,2.1-10.2,2.1c-11.1,0-15.4-8.5-15.4-15.2c0-8.8,5.7-15.5,16.1-15.5C1248,570,1250.4,571.1,1251.3,571.1z"/>
		</g>
	</g>
	<g>
		<g>
			<path class="st4" d="M914.1,361.1l0.5,7.2h-1.6c-0.7-4.2-4.7-5.8-8.6-5.8c-5.4,0-11,3.9-11,12.7c0,8.8,6,13.4,11.8,13.4
				c2.7,0,5.7-1.2,7.6-3.4l1.6,1.6c-2.5,2.9-6.5,4.4-10.6,4.4c-7.6,0-15.4-5-15.4-15.2c0-8.6,5.2-15.5,16.1-15.5
				c4.5,0,6.6,1.2,7.5,1.2c0.3,0,0.6,0,0.6-0.6H914.1z"/>
			<path class="st4" d="M933.3,391.2c-5.9,0-11.5-3.4-11.5-9.7V367c0-4.2-1.6-4.6-3.9-4.6v-1.5h11.9v1.5c-2.3,0-3.9,0.7-3.9,4.6
				v13.5c0,5.1,4,8,8.3,8c4.3,0,8.7-3,8.7-9.6v-12c0-3.6-1.2-4.6-3.9-4.6v-1.5h10.4v1.5c-2.5,0-3.9,0.6-3.9,4.6v12.4
				C945.6,387.4,939.5,391.2,933.3,391.2z"/>
			<path class="st4" d="M966,388.8c6.9,0,9.2-0.4,9.9-5.5v-0.1h1.5l-0.4,7.6H953v-1.6c2.3,0,3.9-0.2,3.9-4.6v-17.5
				c0-4-1.5-4.6-3.9-4.6V361h12v1.5c-2.5,0-3.9,0.7-3.9,4.6v17.5C961.1,387.5,961.7,388.8,966,388.8z"/>
			<path class="st4" d="M996.7,363.4h-5.2v21.2c0,4,1.5,4.6,3.8,4.6v1.6h-11.9v-1.6c2.7,0,3.9-0.9,3.9-4.6v-21.2h-5.4
				c-4.1,0-3.9,1.2-4.6,4.1h-1.4l0.3-6.5h26.5l0.4,6.5h-1.6C1000.7,363.7,1000.3,363.4,996.7,363.4z"/>
			<path class="st4" d="M1021.2,391.2c-5.9,0-11.5-3.4-11.5-9.7V367c0-4.2-1.6-4.6-3.9-4.6v-1.5h12v1.5c-2.3,0-3.9,0.7-3.9,4.6v13.5
				c0,5.1,4,8,8.3,8s8.7-3,8.7-9.6v-12c0-3.6-1.2-4.6-3.9-4.6v-1.5h10.4v1.5c-2.5,0-3.9,0.6-3.9,4.6v12.4
				C1033.5,387.4,1027.4,391.2,1021.2,391.2z"/>
			<path class="st4" d="M1052.9,390.8h-12v-1.6c2.5,0,3.9-0.8,3.9-4.6v-17.5c0-3.7-1.2-4.6-3.9-4.6V361h14c5.6,0,8.1,3.5,8.1,7.2
				c0,3.4-2.1,7-6.3,8.3l7.3,10c2,2.5,2.8,2.6,4.2,2.6h0.1v1.6h-6.4l-10.4-13.8h-2.7v7.6c0,3.9,1.6,4.6,3.9,4.6v1.7H1052.9z
				 M1058.9,369.1c0-2.9-2.2-5.8-6.5-5.8h-3.4v11.3h4C1056.9,374.7,1058.9,372,1058.9,369.1z"/>
			<path class="st4" d="M1087.6,379.7h-10.8l-2.4,6c-0.4,0.7-0.8,1.6-0.8,2.2c0,0.8,1.4,1.4,3.4,1.4v1.6h-10.2v-1.6
				c2.1,0,3.9-0.7,5-3.5l10.2-25.2h2.5l10.6,26.2c0.7,2,1.8,2.3,3.9,2.3v1.6h-11.8v-1.6c2.4,0,3.3-0.7,3.3-1.8
				c0-0.7-0.3-1.9-0.7-2.7L1087.6,379.7z M1086.7,377.3l-4.5-11.1l-4.4,11.1H1086.7z"/>
			<path class="st4" d="M1113.6,388.8c6.9,0,9.2-0.4,9.9-5.5v-0.1h1.5l-0.4,7.6h-23.8v-1.6c2.3,0,3.9-0.2,3.9-4.6v-17.5
				c0-4-1.5-4.6-3.9-4.6V361h12v1.5c-2.5,0-3.9,0.7-3.9,4.6v17.5C1108.7,387.5,1109.3,388.8,1113.6,388.8z"/>
			<path class="st4" d="M1148.7,390.8h-12v-1.6c2.5,0,3.9-0.8,3.9-4.6v-17.5c0-3.7-1.2-4.6-3.9-4.6V361h14c5.6,0,8.1,3.5,8.1,7.2
				c0,3.4-2.1,7-6.3,8.3l7.3,10c2,2.5,2.8,2.6,4.2,2.6h0.1v1.6h-6.4l-10.4-13.8h-2.7v7.6c0,3.9,1.6,4.6,3.9,4.6v1.7H1148.7z
				 M1154.7,369.1c0-2.9-2.2-5.8-6.5-5.8h-3.4v11.3h4C1152.7,374.7,1154.7,372,1154.7,369.1z"/>
			<path class="st4" d="M1175.2,376v8.6c0,2.8,0.1,4,5.4,4c6.5,0,7.3-0.3,8.3-4.5h1.5l-0.5,6.7h-22.6v-1.6c2.3,0,3.9-0.6,3.9-4.6
				v-17.5c0-4.1-1.6-4.6-3.9-4.6V361h22.4l0.4,6.5h-1.6c-0.7-3.9-1.5-4.1-4-4.1h-9.2v10.3h4.6c3.9,0,5.2-0.5,5.2-3.5h1.4v9.2h-1.4
				c0-3.1-1.6-3.5-5.2-3.5L1175.2,376L1175.2,376z"/>
			<path class="st4" d="M1206.6,388.8c6.9,0,9.2-0.4,9.9-5.5v-0.1h1.5l-0.4,7.6h-23.8v-1.6c2.3,0,3.9-0.2,3.9-4.6v-17.5
				c0-4-1.5-4.6-3.9-4.6V361h12v1.5c-2.5,0-3.9,0.7-3.9,4.6v17.5C1201.7,387.5,1202.4,388.8,1206.6,388.8z"/>
			<path class="st4" d="M1229,376v8.6c0,2.8,0.1,4,5.4,4c6.5,0,7.3-0.3,8.3-4.5h1.5l-0.5,6.7h-22.6v-1.6c2.3,0,3.9-0.6,3.9-4.6
				v-17.5c0-4.1-1.6-4.6-3.9-4.6V361h22.4l0.4,6.5h-1.6c-0.7-3.9-1.5-4.1-4-4.1h-9.1v10.3h4.6c3.9,0,5.2-0.5,5.2-3.5h1.4v9.2h-1.4
				c0-3.1-1.6-3.5-5.2-3.5L1229,376L1229,376z"/>
			<path class="st4" d="M1269.9,366.2c0.4-0.7,0.6-1.6,0.6-2.2c0-0.9-1-1.6-3.4-1.6V361h10v1.5c-2.1,0-3.6,0.7-4.6,3.5l-10.2,25.2
				h-2.5l-10.7-26.2c-0.7-2.1-1.8-2.5-3.8-2.5v-1.5h11.9v1.5c-2.4,0-3.5,0.7-3.5,1.9c0,0.7,0.4,1.8,0.7,2.6l7.5,18.6L1269.9,366.2z"
				/>
			<path class="st4" d="M1293.6,379.7h-10.8l-2.4,6c-0.4,0.7-0.8,1.6-0.8,2.2c0,0.8,1.4,1.4,3.4,1.4v1.6h-10.1v-1.6
				c2.1,0,3.9-0.7,5-3.5l10.2-25.2h2.5l10.6,26.2c0.7,2,1.8,2.3,3.9,2.3v1.6h-11.8v-1.6c2.4,0,3.3-0.7,3.3-1.8
				c0-0.7-0.3-1.9-0.7-2.7L1293.6,379.7z M1292.7,377.3l-4.5-11.1l-4.4,11.1H1292.7z"/>
			<path class="st4" d="M1316.8,389.2v1.6h-10.2v-1.6c2.5,0,3.9-0.8,3.9-4.6v-17.5c0-4.2-1.7-4.6-3.9-4.6V361h6.4l19.1,23.5V367
				c0-3.6-1.2-4.6-3.8-4.6v-1.5h10.2v1.5c-2.5,0-3.7,0.9-3.7,4.6v24.1h-2.7l-19.1-23.6v17C1313,388.5,1314.4,389.2,1316.8,389.2z"/>
			<path class="st4" d="M1367.8,361.1l0.5,7.2h-1.6c-0.7-4.2-4.7-5.8-8.6-5.8c-5.4,0-11,3.9-11,12.7c0,8.8,6,13.4,11.8,13.4
				c2.7,0,5.7-1.2,7.6-3.4l1.6,1.6c-2.5,2.9-6.5,4.4-10.6,4.4c-7.6,0-15.4-5-15.4-15.2c0-8.6,5.2-15.5,16.1-15.5
				c4.5,0,6.6,1.2,7.5,1.2c0.3,0,0.6,0,0.6-0.6H1367.8z"/>
			<path class="st4" d="M1379.8,376v8.6c0,2.8,0.1,4,5.4,4c6.5,0,7.3-0.3,8.3-4.5h1.5l-0.5,6.7h-22.6v-1.6c2.3,0,3.9-0.6,3.9-4.6
				v-17.5c0-4.1-1.6-4.6-3.9-4.6V361h22.4l0.4,6.5h-1.6c-0.7-3.9-1.5-4.1-4-4.1h-9.1v10.3h4.6c3.9,0,5.2-0.5,5.2-3.5h1.4v9.2h-1.4
				c0-3.1-1.6-3.5-5.2-3.5L1379.8,376L1379.8,376z"/>
			<path class="st4" d="M1017,421.6h-10.8l-2.4,6c-0.4,0.7-0.8,1.6-0.8,2.2c0,0.8,1.4,1.4,3.4,1.4v1.6h-10.2v-1.6
				c2.1,0,3.9-0.7,5-3.5l10.2-25.2h2.5l10.6,26.2c0.7,2,1.8,2.3,3.9,2.3v1.6h-11.8v-1.6c2.4,0,3.3-0.7,3.3-1.8
				c0-0.7-0.3-1.9-0.7-2.7L1017,421.6z M1016,419.3l-4.5-11.1l-4.4,11.1H1016z"/>
			<path class="st4" d="M1034.5,408.9c0,7.7,16.1,5.1,16.1,16.4c0,5-3.8,8-10.3,8c-4.2,0-6.5-1.2-7.1-1.2c-0.6,0-0.7,0.4-0.7,0.7
				h-1.5l-0.6-7.5h1.6c0,0,0.6,6,8.4,6c2.8,0,6.2-1.8,6.2-4.8c0-8.3-15.7-6.2-15.7-16.3c0-4.9,3.8-7.7,9.3-7.7
				c3.7,0,6.1,1.5,6.9,1.5c0.4,0,0.8-0.2,0.8-0.9h1.4l0.5,7.2h-1.6c0,0-0.9-5.7-8.4-5.7C1036,404.6,1034.5,407.2,1034.5,408.9z"/>
			<path class="st4" d="M1059.1,408.9c0,7.7,16.1,5.1,16.1,16.4c0,5-3.8,8-10.3,8c-4.2,0-6.5-1.2-7.1-1.2c-0.6,0-0.7,0.4-0.7,0.7
				h-1.5l-0.6-7.5h1.6c0,0,0.6,6,8.4,6c2.8,0,6.2-1.8,6.2-4.8c0-8.3-15.7-6.2-15.7-16.3c0-4.9,3.8-7.7,9.3-7.7
				c3.7,0,6.1,1.5,6.9,1.5c0.4,0,0.8-0.2,0.8-0.9h1.4l0.5,7.2h-1.6c0,0-0.9-5.7-8.4-5.7C1060.5,404.6,1059.1,407.2,1059.1,408.9z"/>
			<path class="st4" d="M1087.2,418v8.6c0,2.8,0.1,4,5.4,4c6.5,0,7.3-0.3,8.3-4.5h1.5l-0.5,6.7h-22.6v-1.6c2.3,0,3.9-0.6,3.9-4.6
				v-17.5c0-4.1-1.6-4.6-3.9-4.6V403h22.4l0.4,6.5h-1.6c-0.7-3.9-1.5-4.1-4-4.1h-9.1v10.3h4.6c3.9,0,5.2-0.5,5.2-3.5h1.4v9.2h-1.4
				c0-3.1-1.6-3.5-5.2-3.5L1087.2,418L1087.2,418z"/>
			<path class="st4" d="M1110.2,408.9c0,7.7,16.1,5.1,16.1,16.4c0,5-3.8,8-10.3,8c-4.2,0-6.5-1.2-7.1-1.2c-0.6,0-0.7,0.4-0.7,0.7
				h-1.5l-0.6-7.5h1.6c0,0,0.6,6,8.4,6c2.8,0,6.2-1.8,6.2-4.8c0-8.3-15.7-6.2-15.7-16.3c0-4.9,3.8-7.7,9.3-7.7
				c3.7,0,6.1,1.5,6.9,1.5c0.4,0,0.8-0.2,0.8-0.9h1.4l0.5,7.2h-1.6c0,0-0.9-5.7-8.4-5.7C1111.7,404.6,1110.2,407.2,1110.2,408.9z"/>
			<path class="st4" d="M1134.8,408.9c0,7.7,16.1,5.1,16.1,16.4c0,5-3.8,8-10.3,8c-4.2,0-6.5-1.2-7.1-1.2s-0.7,0.4-0.7,0.7h-1.5
				l-0.6-7.5h1.6c0,0,0.6,6,8.4,6c2.8,0,6.2-1.8,6.2-4.8c0-8.3-15.7-6.2-15.7-16.3c0-4.9,3.8-7.7,9.3-7.7c3.7,0,6.1,1.5,6.9,1.5
				c0.4,0,0.8-0.2,0.8-0.9h1.4l0.5,7.2h-1.6c0,0-0.9-5.7-8.4-5.7C1136.2,404.6,1134.8,407.2,1134.8,408.9z"/>
			<path class="st4" d="M1192.5,403.1v1.5c-2.5,0-3.8,0.9-3.8,4.6v17.5c0,4,1.5,4.6,3.7,4.6v1.6h-11.7v-1.6c2.7,0,3.8-0.9,3.8-4.6
				v-18.6l-10.5,25.2h-2.6l-10.1-25v18.3c0,4,1.2,4.6,3.9,4.6v1.6h-10.3v-1.6c2,0,3.9-0.2,3.9-4.6v-17.5c0-3.4-1-4.6-3.9-4.6V403
				h8.8l10,24.9l10.4-24.9h8.4V403.1z"/>
			<path class="st4" d="M1204.7,418v8.6c0,2.8,0.1,4,5.4,4c6.5,0,7.3-0.3,8.3-4.5h1.5l-0.5,6.7h-22.6v-1.6c2.3,0,3.9-0.6,3.9-4.6
				v-17.5c0-4.1-1.6-4.6-3.9-4.6V403h22.4l0.4,6.5h-1.6c-0.7-3.9-1.5-4.1-4-4.1h-9.1v10.3h4.6c3.9,0,5.2-0.5,5.2-3.5h1.4v9.2h-1.4
				c0-3.1-1.6-3.5-5.2-3.5L1204.7,418L1204.7,418z"/>
			<path class="st4" d="M1233.2,431.2v1.6h-10.2v-1.6c2.5,0,3.9-0.8,3.9-4.6v-17.5c0-4.2-1.7-4.6-3.9-4.6V403h6.4l19.1,23.5v-17.5
				c0-3.6-1.2-4.6-3.8-4.6v-1.5h10.2v1.5c-2.5,0-3.7,0.9-3.7,4.6v24.1h-2.6l-19.1-23.6v17C1229.6,430.5,1230.9,431.2,1233.2,431.2z"
				/>
			<path class="st4" d="M1279.1,405.4h-5.2v21.2c0,4,1.5,4.6,3.8,4.6v1.6h-11.9v-1.6c2.7,0,3.9-0.9,3.9-4.6v-21.2h-5.4
				c-4.1,0-3.9,1.2-4.6,4.1h-1.4l0.3-6.5h26.5l0.4,6.5h-1.6C1283.1,405.7,1282.7,405.4,1279.1,405.4z"/>
		</g>
	</g>
</g>
<g>
	<g>
		<path class="st4" d="M190,824.7L191,838h-2.7c-1.3-7.8-8.7-10.7-15.8-10.7c-9.8,0-20,7.2-20,23.2c0,16,11,24.6,21.5,24.6
			c5.1,0,10.3-2,13.8-6.1l2.8,2.8c-4.6,5.4-11.8,8.1-19.3,8.1c-13.8,0-28.1-9.2-28.1-27.8c0-15.7,9.6-28.4,29.3-28.4
			c8.2,0,12,2.1,13.6,2.1c0.6,0,1.1-0.1,1.2-1.2h2.7V824.7z"/>
		<path class="st4" d="M225.3,880c-10.8,0-21.2-6.1-21.2-17.5v-26.6c0-7.8-2.8-8.3-7-8.3v-2.7h21.7v2.7c-4.2,0-7,1.4-7,8.3v24.8
			c0,9.4,7.4,14.6,15.1,14.6c7.8,0,15.9-5.7,15.9-17.5v-21.9c0-6.5-2.2-8.3-7-8.3v-2.7h19v2.7c-4.5,0-7.1,1.2-7.1,8.3v22.6
			C247.7,873,236.6,880,225.3,880z"/>
		<path class="st4" d="M284.9,875.5c12.7,0,16.9-0.7,17.9-10l0.1-0.2h2.7l-0.8,13.8h-43.5v-3c4.1,0,7-0.3,7-8.3v-32
			c0-7.4-2.6-8.3-7-8.3v-2.7h21.7v2.7c-4.5,0-7,1.3-7,8.3v32C276.1,873.3,277.1,875.5,284.9,875.5z"/>
		<path class="st4" d="M341.1,829h-9.5v38.7c0,7.3,2.7,8.3,7,8.3v3H317v-3c5,0,7-1.8,7-8.3V829h-9.8c-7.5,0-7.2,2.1-8.5,7.5H303
			l0.5-11.8h48.3l0.6,11.8h-2.7C348.4,829.6,347.6,829,341.1,829z"/>
		<path class="st4" d="M385.9,880c-10.8,0-21.2-6.1-21.2-17.5v-26.6c0-7.8-2.8-8.3-7-8.3v-2.7h21.7v2.7c-4.2,0-7,1.4-7,8.3v24.8
			c0,9.4,7.4,14.6,15.1,14.6c7.8,0,15.9-5.7,15.9-17.5v-21.9c0-6.5-2.2-8.3-7-8.3v-2.7h19v2.7c-4.5,0-7.1,1.2-7.1,8.3v22.6
			C408.3,873,397.3,880,385.9,880z"/>
		<path class="st4" d="M443.7,879.2h-21.7v-3c4.6,0,7-1.6,7-8.3v-32c0-6.8-2-8.3-7-8.3v-2.7h25.5c10.1,0,14.8,6.3,14.8,13.3
			c0,6.1-3.9,12.9-11.5,15.2l13.5,18.3c3.7,4.6,5.3,4.7,7.8,4.7h0.2v3h-11.6l-19-25.1h-4.9V868c0,7.2,2.7,8.3,7,8.3v2.8H443.7z
			 M454.7,839.5c0-5.4-4-10.4-11.8-10.4h-6.1v20.8h7.3C451,849.7,454.7,844.7,454.7,839.5z"/>
		<path class="st4" d="M492.1,852.2v15.7c0,5.3,0.2,7.4,9.7,7.4c11.9,0,13.4-0.6,15.1-8.2h2.6l-0.9,12.2h-41.3v-3c4.1,0,7-1.1,7-8.3
			v-32c0-7.5-2.7-8.3-7-8.3v-2.7h40.7l0.7,11.8H516c-1.4-7.1-2.7-7.5-7.3-7.5H492V848h8.3c7,0,9.5-0.9,9.5-6.3h2.5v17h-2.5
			c0-5.8-3-6.4-9.5-6.4h-8.2V852.2z"/>
		<path class="st4" d="M575.5,858.8h-19.6l-4.4,10.9c-0.6,1.5-1.5,3-1.5,4c0,1.6,2.4,2.4,6.1,2.4v3h-18.7v-3c3.8,0,7.2-1.4,9.1-6.3
			l18.6-46h4.5l19.4,48c1.4,3.7,3.3,4.3,7,4.3v3h-21.4v-3c4.4,0,6-1.3,6-3.3c0-1.4-0.6-3.4-1.3-4.9L575.5,858.8z M573.7,854.5
			l-8.2-20.4l-8,20.4H573.7z"/>
		<path class="st4" d="M617.8,876.2v3h-18.6v-3c4.5,0,7-1.5,7-8.3v-32c0-7.8-3.2-8.3-7-8.3v-2.7h11.7l34.9,43.1v-32
			c0-6.5-2.1-8.3-7-8.3v-2.7h18.7v2.7c-4.6,0-6.8,1.7-6.8,8.3V880h-5l-34.9-43.2v31C610.9,874.9,613.4,876.2,617.8,876.2z"/>
		<path class="st4" d="M664.8,827.5v-2.7h27.6c18.3,0,26.4,14.4,26.4,27.4c0,14.7-10.6,26.9-26.9,26.9h-27.1v-3c5,0,7-1.4,7-8.3v-32
			C671.9,828.5,669.7,827.5,664.8,827.5z M688.4,875.5c12.2,0,21-4.6,21-21.3c0-9.5-1.9-25.1-22.5-25.1h-7.4v38.7
			C679.6,873.3,680.6,875.5,688.4,875.5z"/>
		<path class="st4" d="M788,824.7l0.9,13.3h-2.7c-1.3-7.8-8.7-10.7-15.8-10.7c-9.8,0-20,7.2-20,23.2c0,16,11,24.6,21.5,24.6
			c5.1,0,10.3-2,13.8-6.1l2.8,2.8c-4.6,5.4-11.8,8.1-19.3,8.1c-13.8,0-28.1-9.2-28.1-27.8c0-15.7,9.6-28.4,29.3-28.4
			c8.2,0,12,2.1,13.6,2.1c0.6,0,1.1-0.1,1.2-1.2h2.7V824.7z"/>
		<path class="st4" d="M847.3,851.5c0,14.2-9.1,28.5-26.5,28.5c-17.5,0-26.7-14.2-26.7-28.5c0-14.1,8.7-27.6,26.6-27.6
			S847.3,837.4,847.3,851.5z M838.1,853.4c0-12.5-6.1-25.2-17.9-25.2c-10.1,0-17.2,8.5-17.2,21.3c0,12.9,7.1,26.4,18.5,26.4
			C831.6,875.9,838.1,866.5,838.1,853.4z"/>
		<path class="st4" d="M923.2,824.7v2.7c-4.6,0-6.9,1.8-6.9,8.3v32c0,7.4,2.6,8.3,6.8,8.3v3h-21.3v-3c5,0,6.9-1.7,6.9-8.3v-34
			l-19.2,46.1h-4.9l-18.5-45.6v33.4c0,7.3,2.1,8.3,7,8.3v3h-18.8v-3c3.7,0,7-0.3,7-8.3v-32c0-6.1-1.9-8.3-7-8.3v-2.7h16.2l18.4,45.4
			l19-45.4H923.2z"/>
		<path class="st4" d="M999.4,824.7v2.7c-4.6,0-6.9,1.8-6.9,8.3v32c0,7.4,2.6,8.3,6.8,8.3v3H978v-3c5,0,6.9-1.7,6.9-8.3v-34
			l-19.2,46.1h-4.9l-18.5-45.6v33.4c0,7.3,2.1,8.3,7,8.3v3h-18.7v-3c3.7,0,7-0.3,7-8.3v-32c0-6.1-1.9-8.3-7-8.3v-2.7h16l18.4,45.4
			l19-45.4H999.4z"/>
		<path class="st4" d="M1059.2,851.5c0,14.2-9.1,28.5-26.5,28.5c-17.5,0-26.7-14.2-26.7-28.5c0-14.1,8.7-27.6,26.6-27.6
			C1050.5,823.9,1059.2,837.4,1059.2,851.5z M1050,853.4c0-12.5-6.1-25.2-17.9-25.2c-10.1,0-17.2,8.5-17.2,21.3
			c0,12.9,7.1,26.4,18.5,26.4C1043.4,875.9,1050,866.5,1050,853.4z"/>
		<path class="st4" d="M1084.9,876.2v3h-18.6v-3c4.5,0,7-1.5,7-8.3v-32c0-7.8-3.2-8.3-7-8.3v-2.7h11.7l34.9,43.1v-32
			c0-6.5-2.1-8.3-7-8.3v-2.7h18.7v2.7c-4.6,0-6.8,1.7-6.8,8.3V880h-5l-34.9-43.2v31C1078.1,874.9,1080.5,876.2,1084.9,876.2z"/>
		<path class="st4" d="M1140.3,835.5c0,14,29.3,9.4,29.3,30c0,9.2-7,14.6-18.8,14.6c-7.8,0-11.9-2.2-13.1-2.2
			c-1.2,0-1.5,0.8-1.5,1.4h-2.6l-1.2-13.7h2.8c0,0,1.2,11,15.3,11c5.3,0,11.3-3.2,11.3-8.8c0-15.2-28.8-11.4-28.8-29.8
			c0-9.1,7-14,17.1-14c6.8,0,11.1,2.6,12.8,2.6c0.8,0,1.6-0.4,1.6-1.7h2.5l0.9,13.3h-3c0,0-1.7-10.3-15.4-10.3
			C1142.9,827.7,1140.3,832.3,1140.3,835.5z"/>
		<path class="st4" d="M1191.7,852.2v15.7c0,5.3,0.2,7.4,9.7,7.4c11.9,0,13.4-0.6,15.1-8.2h2.6l-0.9,12.2h-41.3v-3
			c4.1,0,7-1.1,7-8.3v-32c0-7.5-2.7-8.3-7-8.3v-2.7h40.7l0.7,11.8h-2.8c-1.4-7.1-2.7-7.5-7.3-7.5h-16.7V848h8.3c7,0,9.5-0.9,9.5-6.3
			h2.5v17h-2.5c0-5.8-3-6.4-9.5-6.4h-8.2V852.2z"/>
		<path class="st4" d="M1244,876.2v3h-18.6v-3c4.5,0,7-1.5,7-8.3v-32c0-7.8-3.2-8.3-7-8.3v-2.7h11.7l34.9,43.1v-32
			c0-6.5-2.1-8.3-7-8.3v-2.7h18.7v2.7c-4.6,0-6.8,1.7-6.8,8.3V880h-5l-34.9-43.2v31C1237.2,874.9,1239.6,876.2,1244,876.2z"/>
		<path class="st4" d="M1299.4,835.5c0,14,29.3,9.4,29.3,30c0,9.2-7,14.6-18.8,14.6c-7.8,0-11.9-2.2-13.1-2.2s-1.5,0.8-1.5,1.4h-2.6
			l-1.2-13.7h2.8c0,0,1.2,11,15.3,11c5.3,0,11.3-3.2,11.3-8.8c0-15.2-28.8-11.4-28.8-29.8c0-9.1,7-14,17.1-14
			c6.8,0,11.1,2.6,12.8,2.6c0.8,0,1.6-0.4,1.6-1.7h2.5l0.9,13.3h-3c0,0-1.7-10.3-15.4-10.3C1302.1,827.7,1299.4,832.3,1299.4,835.5z
			"/>
		<path class="st4" d="M1350.8,852.2v15.7c0,5.3,0.2,7.4,9.7,7.4c11.9,0,13.4-0.6,15.1-8.2h2.6l-0.9,12.2H1336v-3c4.1,0,7-1.1,7-8.3
			v-32c0-7.5-2.7-8.3-7-8.3v-2.7h40.7l0.7,11.8h-2.8c-1.4-7.1-2.7-7.5-7.3-7.5h-16.7V848h8.3c7,0,9.5-0.9,9.5-6.3h2.5v17h-2.5
			c0-5.8-3-6.4-9.5-6.4h-8.2V852.2z"/>
	</g>
</g>
<g>
	<path class="st7" d="M500.9,1126.6H86c-3.8,0-7-3.2-7-7v-53.4c0-3.8,3.2-7,7-7h414.9c3.8,0,7,3.2,7,7v53.4
		C507.8,1123.4,504.8,1126.6,500.9,1126.6z"/>
	<path class="st7" d="M966.1,1126.6H551.2c-3.8,0-7-3.2-7-7v-53.4c0-3.8,3.2-7,7-7h414.9c3.8,0,7,3.2,7,7v53.4
		C973.1,1123.4,969.9,1126.6,966.1,1126.6z"/>
	<path class="st7" d="M1431.3,1126.6h-414.9c-3.8,0-7-3.2-7-7v-53.4c0-3.8,3.2-7,7-7h414.9c3.8,0,7,3.2,7,7v53.4
		C1438.3,1123.4,1435.1,1126.6,1431.3,1126.6z"/>
</g>
<g>
	<path class="st7" d="M1071.2,1018.9H809.4c-3.8,0-7-3.2-7-7V924c0-3.8,3.2-7,7-7h261.8c3.8,0,7,3.2,7,7v87.8
		C1078.2,1015.7,1075.1,1018.9,1071.2,1018.9z"/>
	<path class="st7" d="M741.9,1018.9h-319c-3.8,0-7-3.2-7-7V924c0-3.8,3.2-7,7-7H742c3.8,0,7,3.2,7,7v87.8
		C748.8,1015.7,745.8,1018.9,741.9,1018.9z"/>
	<path class="st7" d="M356.3,1018.9H94.5c-3.8,0-7-3.2-7-7V924c0-3.8,3.2-7,7-7h261.8c3.8,0,7,3.2,7,7v87.8
		C363.3,1015.7,360.1,1018.9,356.3,1018.9z"/>
</g>
<g>
	<g>
		<path class="st4" d="M201.8,949.4H191l-2.4,6c-0.4,0.7-0.8,1.6-0.8,2.2c0,0.8,1.4,1.4,3.4,1.4v1.6h-10.2V959
			c2.1,0,3.9-0.7,5.1-3.5l10.2-25.3h2.5l10.7,26.4c0.7,2,1.8,2.3,3.9,2.3v1.6h-11.8v-1.6c2.4,0,3.3-0.7,3.3-1.8
			c0-0.7-0.3-1.9-0.7-2.7L201.8,949.4z M200.9,947.1l-4.5-11.2l-4.4,11.2H200.9z"/>
		<path class="st4" d="M226.8,960.6h-12V959c2.5,0,3.9-0.8,3.9-4.6v-17.6c0-3.7-1.2-4.6-3.9-4.6v-1.5H229c5.6,0,8.1,3.5,8.1,7.3
			c0,3.4-2.1,7.1-6.3,8.3l7.4,10c2,2.5,2.8,2.6,4.2,2.6h0.1v1.6H236l-10.4-13.8h-2.7v7.6c0,3.9,1.6,4.6,3.9,4.6v1.7H226.8z
			 M232.9,938.8c0-3-2.2-5.8-6.5-5.8h-3.4v11.4h4C230.9,944.5,232.9,941.7,232.9,938.8z"/>
		<path class="st4" d="M263.5,933.1h-5.3v21.3c0,4,1.5,4.6,3.8,4.6v1.6h-11.9V959c2.7,0,3.9-0.9,3.9-4.6v-21.3h-5.4
			c-4.1,0-3.9,1.2-4.6,4.1h-1.4l0.3-6.5h26.6l0.4,6.5h-1.6C267.5,933.4,267,933.1,263.5,933.1z"/>
		<path class="st4" d="M142.9,1001.3v1.6h-12v-1.6c2.6,0,3.9-0.7,3.9-4.6V979c0-3.8-1.1-4.6-3.9-4.6v-1.5h12v1.5
			c-2.6,0-3.9,0.6-3.9,4.6v6.6h15.2V979c0-3.9-0.9-4.6-3.6-4.6v-1.5h11.7v1.5c-2.5,0-3.9,0.5-3.9,4.6v17.6c0,4.2,1.4,4.6,3.9,4.6
			v1.6h-11.7v-1.6c2.3,0,3.6-0.4,3.6-4.6V988h-15.2v8.7C138.9,1000.8,140.3,1001.3,142.9,1001.3z"/>
		<path class="st4" d="M178.2,1001.3v1.6h-12v-1.6c2.6,0,3.9-0.8,3.9-4.6V979c0-3.7-1.2-4.6-3.9-4.6v-1.5h12v1.5
			c-2.6,0-3.9,0.9-3.9,4.6v17.6C174.4,1000.2,175.6,1001.3,178.2,1001.3z"/>
		<path class="st4" d="M186.7,978.9c0,7.7,16.1,5.2,16.1,16.5c0,5.1-3.8,8-10.3,8c-4.2,0-6.5-1.2-7.2-1.2c-0.6,0-0.7,0.4-0.7,0.7
			h-1.5l-0.6-7.5h1.6c0,0,0.6,6,8.4,6c2.8,0,6.2-1.8,6.2-4.9c0-8.3-15.8-6.2-15.8-16.4c0-5,3.8-7.7,9.4-7.7c3.7,0,6.1,1.5,7,1.5
			c0.4,0,0.8-0.2,0.8-0.9h1.4l0.5,7.3h-1.6c0,0-0.9-5.7-8.4-5.7C188.1,974.6,186.7,977.1,186.7,978.9z"/>
		<path class="st4" d="M226.9,975.3h-5.3v21.3c0,4,1.5,4.6,3.8,4.6v1.6h-11.9v-1.6c2.7,0,3.9-0.9,3.9-4.6v-21.3h-5.4
			c-4.1,0-3.9,1.2-4.6,4.1h-1.4l0.3-6.5H233l0.4,6.5h-1.6C231.1,975.6,230.5,975.3,226.9,975.3z"/>
		<path class="st4" d="M264.9,987.6c0,7.8-5,15.6-14.6,15.6c-9.7,0-14.7-7.8-14.7-15.7c0-7.7,4.7-15.2,14.7-15.2
			C260.1,972.4,264.9,979.9,264.9,987.6z M259.9,988.7c0-6.9-3.4-13.9-9.8-13.9c-5.6,0-9.5,4.6-9.5,11.7c0,7.1,3.9,14.6,10.1,14.6
			C256.3,1001,259.9,995.9,259.9,988.7z"/>
		<path class="st4" d="M280.8,1002.8h-12v-1.6c2.5,0,3.9-0.8,3.9-4.6V979c0-3.7-1.2-4.6-3.9-4.6v-1.5h14c5.6,0,8.1,3.5,8.1,7.3
			c0,3.4-2.1,7.1-6.3,8.3l7.4,10c2,2.5,2.8,2.6,4.2,2.6h0.1v1.6h-6.4l-10.4-13.8h-2.7v7.6c0,3.9,1.6,4.6,3.9,4.6v1.7H280.8z
			 M286.8,981c0-3-2.2-5.8-6.5-5.8h-3.4v11.4h4C284.8,986.7,286.8,983.9,286.8,981z"/>
		<path class="st4" d="M313.7,974.5V973H324v1.5l0,0c-1.8,0-2.5,0-4.9,3.9l-7.4,12.2v6.1c0,4,1.6,4.6,3.9,4.6v1.6h-11.9v-1.6
			c2.5,0,3.9-0.4,3.9-4.6v-6.1l-8.3-13.9c-0.8-1.7-2.3-2.2-4-2.2h-0.1V973h13v1.5h-0.1c-2.3,0-3.7,0.4-3.7,1.6
			c0,0.6,0.4,1.6,0.8,2.3l5.7,9.4l4.5-7.4c0.7-1.4,1.9-3.1,1.9-4.2C317.2,975.1,315.8,974.5,313.7,974.5L313.7,974.5z"/>
	</g>
</g>
<g>
	<g>
		<path class="st4" d="M548.1,930.8l0.5,7.3h-1.6c-0.7-4.2-4.7-5.8-8.7-5.8c-5.4,0-11.1,3.9-11.1,12.8c0,8.9,6,13.5,11.8,13.5
			c2.7,0,5.7-1.2,7.6-3.4l1.6,1.6c-2.5,3-6.5,4.4-10.7,4.4c-7.6,0-15.5-5.1-15.5-15.3c0-8.7,5.3-15.6,16.1-15.6
			c4.5,0,6.6,1.2,7.5,1.2c0.3,0,0.6,0,0.6-0.6H548.1z"/>
		<path class="st4" d="M564,959v1.6h-12V959c2.6,0,3.9-0.8,3.9-4.6v-17.6c0-3.7-1.2-4.6-3.9-4.6v-1.5h12v1.5c-2.6,0-3.9,0.9-3.9,4.6
			v17.6C560.1,958,561.3,959,564,959z"/>
		<path class="st4" d="M590.4,935.9c0.4-0.7,0.6-1.6,0.6-2.2c0-0.9-1.1-1.6-3.4-1.6v-1.5h10v1.5c-2.1,0-3.6,0.7-4.6,3.5l-10.2,25.3
			h-2.5l-10.8-26.4c-0.7-2.1-1.8-2.5-3.8-2.5v-1.5h11.9v1.5c-2.4,0-3.5,0.7-3.5,1.9c0,0.7,0.4,1.8,0.7,2.6l7.5,18.7L590.4,935.9z"/>
		<path class="st4" d="M611.5,959v1.6h-12V959c2.6,0,3.9-0.8,3.9-4.6v-17.6c0-3.7-1.2-4.6-3.9-4.6v-1.5h12v1.5
			c-2.6,0-3.9,0.9-3.9,4.6v17.6C607.6,958,608.7,959,611.5,959z"/>
		<path class="st4" d="M640.8,930.8l0.5,7.3h-1.6c-0.7-4.2-4.7-5.8-8.7-5.8c-5.4,0-11.1,3.9-11.1,12.8c0,8.9,6,13.5,11.8,13.5
			c2.7,0,5.7-1.2,7.6-3.4l1.6,1.6c-2.5,3-6.5,4.4-10.7,4.4c-7.6,0-15.5-5.1-15.5-15.3c0-8.7,5.3-15.6,16.1-15.6
			c4.5,0,6.6,1.2,7.5,1.2c0.3,0,0.6,0,0.6-0.6H640.8z"/>
		<path class="st4" d="M458.6,988v8.7c0,2.8,0.1,4,5.4,4c6.5,0,7.4-0.3,8.3-4.5h1.5l-0.5,6.8h-22.7v-1.6c2.3,0,3.9-0.6,3.9-4.6V979
			c0-4.1-1.6-4.6-3.9-4.6v-1.5H473l0.4,6.5h-1.6c-0.7-3.9-1.5-4.1-4-4.1h-9.2v10.3h4.6c3.9,0,5.3-0.5,5.3-3.5h1.4v9.3h-1.4
			c0-3.2-1.6-3.5-5.3-3.5L458.6,988L458.6,988z"/>
		<path class="st4" d="M477.1,974.5V973h15.2c10,0,14.6,7.9,14.6,15.1c0,8.1-5.8,14.8-14.8,14.8h-14.9v-1.6c2.7,0,3.9-0.7,3.9-4.6
			V979C481,975.1,479.8,974.5,477.1,974.5z M490.1,1000.8c6.8,0,11.6-2.5,11.6-11.7c0-5.2-1.1-13.8-12.3-13.8h-4v21.3
			C485.3,999.6,485.8,1000.8,490.1,1000.8z"/>
		<path class="st4" d="M526,1003.4c-5.9,0-11.6-3.4-11.6-9.7V979c0-4.2-1.6-4.6-3.9-4.6v-1.5h11.9v1.5c-2.3,0-3.9,0.7-3.9,4.6v13.6
			c0,5.2,4,8,8.3,8c4.3,0,8.8-3.1,8.8-9.6v-12c0-3.6-1.2-4.6-3.9-4.6v-1.5h10.4v1.5c-2.5,0-3.9,0.6-3.9,4.6v12.5
			C538.3,999.5,532.2,1003.4,526,1003.4z"/>
		<path class="st4" d="M571.3,973l0.5,7.3h-1.6c-0.7-4.2-4.7-5.8-8.7-5.8c-5.4,0-11.1,3.9-11.1,12.8c0,8.9,6,13.5,11.8,13.5
			c2.7,0,5.7-1.2,7.6-3.4l1.6,1.6c-2.5,3-6.5,4.4-10.7,4.4c-7.6,0-15.5-5.1-15.5-15.3c0-8.7,5.3-15.6,16.1-15.6
			c4.5,0,6.6,1.2,7.5,1.2c0.3,0,0.6,0,0.6-0.6H571.3z"/>
		<path class="st4" d="M593.4,991.6h-10.9l-2.4,6c-0.4,0.7-0.8,1.6-0.8,2.2c0,0.8,1.4,1.4,3.4,1.4v1.6h-10.2v-1.6
			c2.1,0,3.9-0.7,5.1-3.5l10.2-25.3h2.5l10.7,26.4c0.7,2,1.8,2.3,3.9,2.3v1.6H593v-1.6c2.4,0,3.3-0.7,3.3-1.8c0-0.7-0.3-1.9-0.7-2.7
			L593.4,991.6z M592.5,989.3l-4.5-11.2l-4.4,11.2H592.5z"/>
		<path class="st4" d="M623.1,975.3h-5.3v21.3c0,4,1.5,4.6,3.8,4.6v1.6h-11.9v-1.6c2.7,0,3.9-0.9,3.9-4.6v-21.3h-5.4
			c-4.1,0-3.9,1.2-4.6,4.1h-1.4l0.3-6.5h26.6l0.4,6.5h-1.7C627.1,975.6,626.5,975.3,623.1,975.3z"/>
		<path class="st4" d="M644.2,1001.3v1.6h-12v-1.6c2.6,0,3.9-0.8,3.9-4.6V979c0-3.7-1.2-4.6-3.9-4.6v-1.5h12v1.5
			c-2.6,0-3.9,0.9-3.9,4.6v17.6C640.3,1000.2,641.5,1001.3,644.2,1001.3z"/>
		<path class="st4" d="M676.8,987.6c0,7.8-5,15.6-14.6,15.6c-9.7,0-14.7-7.8-14.7-15.7c0-7.7,4.7-15.2,14.7-15.2
			C672,972.4,676.8,979.9,676.8,987.6z M671.7,988.7c0-6.9-3.4-13.9-9.8-13.9c-5.6,0-9.5,4.6-9.5,11.7c0,7.1,3.9,14.6,10.1,14.6
			C668.1,1001,671.7,995.9,671.7,988.7z"/>
		<path class="st4" d="M690.9,1001.3v1.6h-10.2v-1.6c2.5,0,3.9-0.8,3.9-4.6V979c0-4.2-1.7-4.6-3.9-4.6v-1.5h6.4l19.2,23.6v-17.6
			c0-3.6-1.2-4.6-3.8-4.6v-1.5h10.2v1.5c-2.5,0-3.7,0.9-3.7,4.6v24.3h-2.7l-19.2-23.7v17.1C687.2,1000.5,688.5,1001.3,690.9,1001.3z
			"/>
	</g>
</g>
<g>
	<g>
		<path class="st4" d="M859.6,929.6l0.5,7.3h-1.6c-0.7-4.2-4.7-5.8-8.7-5.8c-5.4,0-11.1,3.9-11.1,12.8c0,8.9,6,13.5,11.8,13.5
			c2.7,0,5.7-1.2,7.6-3.4l1.6,1.6c-2.5,3-6.5,4.4-10.7,4.4c-7.6,0-15.5-5.1-15.5-15.3c0-8.7,5.3-15.6,16.1-15.6
			c4.5,0,6.6,1.2,7.5,1.2c0.3,0,0.6,0,0.6-0.6H859.6z"/>
		<path class="st4" d="M878.9,960c-5.9,0-11.6-3.4-11.6-9.7v-14.7c0-4.2-1.6-4.6-3.9-4.6v-1.5h11.9v1.5c-2.3,0-3.9,0.7-3.9,4.6v13.6
			c0,5.2,4,8,8.3,8c4.3,0,8.8-3.1,8.8-9.6v-12c0-3.6-1.2-4.6-3.9-4.6v-1.5h10.4v1.5c-2.5,0-3.9,0.6-3.9,4.6v12.5
			C891.3,956.2,885.2,960,878.9,960z"/>
		<path class="st4" d="M910.8,959.6h-12V958c2.5,0,3.9-0.8,3.9-4.6v-17.6c0-3.7-1.2-4.6-3.9-4.6v-1.5h14c5.6,0,8.1,3.5,8.1,7.3
			c0,3.4-2.1,7.1-6.3,8.3l7.4,10c2,2.5,2.8,2.6,4.2,2.6h0.1v1.6h-6.2l-10.4-13.8h-2.7v7.6c0,3.9,1.6,4.6,3.9,4.6V959.6z
			 M916.7,937.7c0-3-2.2-5.8-6.5-5.8h-3.4v11.4h4C914.7,943.3,916.7,940.6,916.7,937.7z"/>
		<path class="st4" d="M941.2,959.6h-12V958c2.5,0,3.9-0.8,3.9-4.6v-17.6c0-3.7-1.2-4.6-3.9-4.6v-1.5h14.1c5.6,0,8.1,3.5,8.1,7.3
			c0,3.4-2.1,7.1-6.3,8.3l7.4,10c2,2.5,2.8,2.6,4.2,2.6h0.1v1.6h-6.4l-10.4-13.8h-2.7v7.6c0,3.9,1.6,4.6,3.9,4.6v1.7H941.2z
			 M947.2,937.7c0-3-2.2-5.8-6.5-5.8h-3.4v11.4h4C945.2,943.3,947.2,940.6,947.2,937.7z"/>
		<path class="st4" d="M967.8,944.7v8.7c0,2.8,0.1,4,5.4,4c6.5,0,7.4-0.3,8.3-4.5h1.5l-0.5,6.8h-22.7V958c2.3,0,3.9-0.6,3.9-4.6
			v-17.6c0-4.1-1.6-4.6-3.9-4.6v-1.5h22.5l0.4,6.5h-1.6c-0.7-3.9-1.5-4.1-4-4.1h-9.2v10.3h4.6c3.9,0,5.3-0.5,5.3-3.5h1.4v9.3h-1.4
			c0-3.2-1.6-3.5-5.3-3.5L967.8,944.7L967.8,944.7z"/>
		<path class="st4" d="M996.6,957.9v1.6h-10.2v-1.6c2.5,0,3.9-0.8,3.9-4.6v-17.6c0-4.2-1.7-4.6-3.9-4.6v-1.5h6.4l19.2,23.6v-17.6
			c0-3.6-1.2-4.6-3.8-4.6v-1.5h10.2v1.5c-2.5,0-3.7,0.9-3.7,4.6v24.3h-2.7L992.8,936v17.1C992.9,957.3,994.2,957.9,996.6,957.9z"/>
		<path class="st4" d="M1042.7,932h-5.3v21.3c0,4,1.5,4.6,3.8,4.6v1.6h-11.9V958c2.7,0,3.9-0.9,3.9-4.6V932h-5.4
			c-4.1,0-3.9,1.2-4.6,4.1h-1.4l0.3-6.5h26.6l0.4,6.5h-1.6C1046.7,932.2,1046.3,932,1042.7,932z"/>
		<path class="st4" d="M863.5,986.9v8.7c0,2.8,0.1,4,5.4,4c6.5,0,7.4-0.3,8.3-4.5h1.5l-0.5,6.8h-22.7v-1.6c2.3,0,3.9-0.6,3.9-4.6
			v-17.6c0-4.1-1.6-4.6-3.9-4.6v-1.5h22.4l0.4,6.5h-1.6c-0.7-3.9-1.5-4.1-4-4.1h-9.2v10.3h4.6c3.9,0,5.3-0.5,5.3-3.5h1.4v9.3h-1.4
			c0-3.2-1.6-3.5-5.3-3.5L863.5,986.9L863.5,986.9z"/>
		<path class="st4" d="M904.6,977c0.4-0.7,0.6-1.6,0.6-2.2c0-0.9-1.1-1.6-3.4-1.6v-1.5h10v1.5c-2.1,0-3.6,0.7-4.6,3.5L897,1002h-2.5
			l-10.8-26.4c-0.7-2.1-1.8-2.5-3.8-2.5v-1.5h11.9v1.5c-2.4,0-3.5,0.7-3.5,1.9c0,0.7,0.4,1.8,0.7,2.6l7.5,18.7L904.6,977z"/>
		<path class="st4" d="M921.9,986.9v8.7c0,2.8,0.1,4,5.4,4c6.5,0,7.4-0.3,8.3-4.5h1.5l-0.5,6.8h-22.8v-1.6c2.3,0,3.9-0.6,3.9-4.6
			v-17.6c0-4.1-1.6-4.6-3.9-4.6v-1.5h22.5l0.4,6.5h-1.6c-0.7-3.9-1.5-4.1-4-4.1h-9.2v10.3h4.6c3.9,0,5.3-0.5,5.3-3.5h1.4v9.3h-1.5
			c0-3.2-1.6-3.5-5.3-3.5L921.9,986.9L921.9,986.9z"/>
		<path class="st4" d="M950.6,1000.1v1.6h-10.2v-1.6c2.5,0,3.9-0.8,3.9-4.6v-17.6c0-4.2-1.7-4.6-3.9-4.6v-1.5h6.4l19.2,23.6v-17.6
			c0-3.6-1.2-4.6-3.8-4.6v-1.5h10.2v1.5c-2.5,0-3.7,0.9-3.7,4.6v24.3H966l-19.2-23.7v17.1C946.9,999.5,948.2,1000.1,950.6,1000.1z"
			/>
		<path class="st4" d="M996.7,974.2h-5.3v21.3c0,4,1.5,4.6,3.8,4.6v1.6h-11.8v-1.6c2.7,0,3.9-0.9,3.9-4.6v-21.3h-5.4
			c-4.1,0-3.9,1.2-4.6,4.1h-1.4l0.3-6.5h26.6l0.4,6.5h-1.6C1000.7,974.5,1000.3,974.2,996.7,974.2z"/>
		<path class="st4" d="M1010.4,977.7c0,7.7,16.1,5.2,16.1,16.5c0,5.1-3.8,8-10.3,8c-4.2,0-6.5-1.2-7.2-1.2c-0.6,0-0.7,0.4-0.7,0.7
			h-1.5l-0.6-7.5h1.6c0,0,0.6,6,8.4,6c2.8,0,6.2-1.8,6.2-4.9c0-8.3-15.8-6.2-15.8-16.4c0-5,3.8-7.7,9.4-7.7c3.7,0,6.1,1.5,7,1.5
			c0.4,0,0.8-0.2,0.8-0.9h1.4l0.5,7.3h-1.6c0,0-0.9-5.7-8.4-5.7C1011.8,973.4,1010.4,976,1010.4,977.7z"/>
	</g>
</g>
<path class="st7" d="M1431.3,1018.9h-295.8c-3.8,0-7-3.2-7-7V924c0-3.8,3.2-7,7-7h295.8c3.8,0,7,3.2,7,7v87.8
	C1438.3,1015.7,1435.1,1018.9,1431.3,1018.9z"/>
<g>
	<g>
		<path class="st4" d="M1161.7,981.4c7,0,9.3-0.4,9.9-5.5v-0.1h1.5l-0.4,7.6h-24v-1.6c2.3,0,3.9-0.2,3.9-4.6v-17.6
			c0-4-1.5-4.6-3.9-4.6v-1.5h12v1.5c-2.5,0-3.9,0.7-3.9,4.6v17.6C1156.9,980.1,1157.4,981.4,1161.7,981.4z"/>
		<path class="st4" d="M1188.1,981.8v1.6h-12v-1.6c2.6,0,3.9-0.8,3.9-4.6v-17.6c0-3.7-1.2-4.6-3.9-4.6v-1.5h12v1.5
			c-2.6,0-3.9,0.9-3.9,4.6v17.6C1184.3,980.9,1185.5,981.8,1188.1,981.8z"/>
		<path class="st4" d="M1212.2,955.9h-5.3v21.3c0,4,1.5,4.6,3.8,4.6v1.6h-11.9v-1.6c2.7,0,3.9-0.9,3.9-4.6v-21.3h-5.4
			c-4.1,0-3.9,1.2-4.6,4.1h-1.4l0.3-6.5h26.6l0.4,6.5h-1.6C1216.3,956.2,1215.8,955.9,1212.2,955.9z"/>
		<path class="st4" d="M1229.5,968.5v8.7c0,2.8,0.1,4,5.4,4c6.5,0,7.4-0.3,8.3-4.5h1.5l-0.5,6.8h-22.7v-1.6c2.3,0,3.9-0.6,3.9-4.6
			v-17.6c0-4.1-1.6-4.6-3.9-4.6v-1.5h22.5l0.4,6.5h-1.6c-0.7-3.9-1.5-4.1-4-4.1h-9.2v10.3h4.6c3.9,0,5.3-0.5,5.3-3.5h1.4v9.3h-1.4
			c0-3.2-1.6-3.5-5.3-3.5L1229.5,968.5L1229.5,968.5z"/>
		<path class="st4" d="M1260.1,983.4h-12v-1.6c2.5,0,3.9-0.8,3.9-4.6v-17.6c0-3.7-1.2-4.6-3.9-4.6v-1.5h14c5.6,0,8.1,3.5,8.1,7.3
			c0,3.4-2.1,7.1-6.3,8.3l7.4,10c2,2.5,2.8,2.6,4.2,2.6h0.1v1.6h-6.4l-10.4-13.8h-2.7v7.6c0,3.9,1.6,4.6,3.9,4.6v1.7H1260.1z
			 M1266,961.6c0-3-2.2-5.8-6.5-5.8h-3.4v11.4h4C1264,967.3,1266,964.5,1266,961.6z"/>
		<path class="st4" d="M1295,972.2h-10.9l-2.4,6c-0.4,0.7-0.8,1.6-0.8,2.2c0,0.8,1.4,1.4,3.4,1.4v1.6H1274v-1.6
			c2.1,0,3.9-0.7,5.1-3.5l10.2-25.3h2.5l10.7,26.4c0.7,2,1.8,2.3,3.9,2.3v1.6h-11.8v-1.6c2.4,0,3.3-0.7,3.3-1.8
			c0-0.7-0.3-1.9-0.7-2.7L1295,972.2z M1294,969.9l-4.5-11.2l-4.4,11.2H1294z"/>
		<path class="st4" d="M1324.5,955.9h-5.3v21.3c0,4,1.5,4.6,3.8,4.6v1.6h-11.9v-1.6c2.7,0,3.9-0.9,3.9-4.6v-21.3h-5.4
			c-4.1,0-3.9,1.2-4.6,4.1h-1.4l0.3-6.5h26.6l0.4,6.5h-1.6C1328.6,956.2,1328.1,955.9,1324.5,955.9z"/>
		<path class="st4" d="M1349.2,983.9c-5.9,0-11.6-3.4-11.6-9.7v-14.7c0-4.2-1.6-4.6-3.9-4.6v-1.5h11.9v1.5c-2.3,0-3.9,0.7-3.9,4.6
			v13.6c0,5.2,4,8,8.3,8c4.3,0,8.8-3.1,8.8-9.6v-12c0-3.6-1.2-4.6-3.9-4.6v-1.5h10.4v1.5c-2.5,0-3.9,0.6-3.9,4.6V972
			C1361.6,980.1,1355.5,983.9,1349.2,983.9z"/>
		<path class="st4" d="M1381,983.4h-12v-1.6c2.5,0,3.9-0.8,3.9-4.6v-17.6c0-3.7-1.2-4.6-3.9-4.6v-1.5h14c5.6,0,8.1,3.5,8.1,7.3
			c0,3.4-2.1,7.1-6.3,8.3l7.4,10c2,2.5,2.8,2.6,4.2,2.6h0.1v1.6h-6.4l-10.4-13.8h-2.7v7.6c0,3.9,1.6,4.6,3.9,4.6v1.7H1381z
			 M1387,961.6c0-3-2.2-5.8-6.5-5.8h-3.4v11.4h4C1385,967.3,1387,964.5,1387,961.6z"/>
		<path class="st4" d="M1407.6,968.5v8.7c0,2.8,0.1,4,5.4,4c6.5,0,7.4-0.3,8.3-4.5h1.5l-0.5,6.8h-22.7v-1.6c2.3,0,3.9-0.6,3.9-4.6
			v-17.6c0-4.1-1.6-4.6-3.9-4.6v-1.5h22.5l0.4,6.5h-1.6c-0.7-3.9-1.5-4.1-4-4.1h-9.2v10.3h4.6c3.9,0,5.3-0.5,5.3-3.5h1.4v9.3h-1.4
			c0-3.2-1.6-3.5-5.3-3.5L1407.6,968.5L1407.6,968.5z"/>
	</g>
</g>
<g>
	<g>
		<path class="st4" d="M200.1,1075.2c0.4,0,0.6,0,0.6-0.6h1.6l0.3,6.5h-1.4c-0.7-2.4-2.7-5.1-8.9-5.1c-6.9,0-10.8,6.2-10.8,13
			c0,8.9,5.3,13.4,12.3,13.4c1.2,0,2.6-0.4,4.2-1.4v-5.3c0-3.2-0.9-4.4-3.7-4.4v-1.6h11.8v1.5c-2.2,0-3.9,0.8-3.9,4.5v7
			c-4.5,1.4-7,2.1-10.2,2.1c-11.2,0-15.5-8.5-15.5-15.3c0-8.9,5.7-15.6,16.1-15.6C197,1074.1,199.3,1075.2,200.1,1075.2z"/>
		<path class="st4" d="M217.8,1089.7v8.7c0,2.8,0.1,4,5.4,4c6.5,0,7.4-0.3,8.3-4.5h1.5l-0.5,6.8h-22.7v-1.6c2.3,0,3.9-0.6,3.9-4.6
			v-17.6c0-4.1-1.6-4.6-3.9-4.6v-1.5h22.4l0.4,6.5H231c-0.7-3.9-1.5-4.1-4-4.1h-9.2v10.3h4.6c3.9,0,5.3-0.5,5.3-3.5h1.4v9.3h-1.4
			c0-3.2-1.6-3.5-5.3-3.5L217.8,1089.7L217.8,1089.7z"/>
		<path class="st4" d="M265.1,1089.4c0,7.8-5,15.6-14.6,15.6c-9.7,0-14.7-7.8-14.7-15.7c0-7.7,4.7-15.2,14.7-15.2
			C260.3,1074.1,265.1,1081.6,265.1,1089.4z M260.1,1090.4c0-6.9-3.4-13.9-9.8-13.9c-5.6,0-9.5,4.6-9.5,11.7
			c0,7.1,3.9,14.6,10.1,14.6C256.5,1102.8,260.1,1097.6,260.1,1090.4z"/>
		<path class="st4" d="M292.3,1075.2c0.4,0,0.6,0,0.6-0.6h1.6l0.3,6.5h-1.5c-0.7-2.4-2.7-5.1-8.9-5.1c-6.9,0-10.8,6.2-10.8,13
			c0,8.9,5.3,13.4,12.3,13.4c1.2,0,2.6-0.4,4.2-1.4v-5.3c0-3.2-0.9-4.4-3.7-4.4v-1.6h11.8v1.5c-2.2,0-3.9,0.8-3.9,4.5v7
			c-4.5,1.4-7,2.1-10.2,2.1c-11.2,0-15.5-8.5-15.5-15.3c0-8.9,5.7-15.6,16.1-15.6C289,1074.1,291.3,1075.2,292.3,1075.2z"/>
		<path class="st4" d="M313.7,1104.6h-11.9v-1.6c2.5,0,3.9-0.8,3.9-4.6v-17.6c0-3.7-1.2-4.6-3.9-4.6v-1.5h14c5.6,0,8.1,3.5,8.1,7.3
			c0,3.4-2.1,7.1-6.3,8.3l7.4,10c2,2.5,2.8,2.6,4.2,2.6h0.1v1.6h-6.4l-10.4-13.8h-2.7v7.6c0,3.9,1.6,4.6,3.9,4.6v1.7H313.7z
			 M319.7,1082.7c0-3-2.2-5.8-6.5-5.8h-3.4v11.4h4C317.7,1088.3,319.7,1085.6,319.7,1082.7z"/>
		<path class="st4" d="M348.7,1093.3h-10.9l-2.4,6c-0.4,0.7-0.8,1.6-0.8,2.2c0,0.8,1.4,1.4,3.4,1.4v1.6h-10.2v-1.6
			c2.1,0,3.9-0.7,5.1-3.5l10.2-25.3h2.5l10.7,26.4c0.7,2,1.8,2.3,3.9,2.3v1.6h-11.9v-1.6c2.4,0,3.3-0.7,3.3-1.8
			c0-0.7-0.3-1.9-0.7-2.7L348.7,1093.3z M347.7,1090.9l-4.5-11.2l-4.4,11.2H347.7z"/>
		<path class="st4" d="M373.7,1104.6h-12v-1.6c2.3,0,3.9-0.4,3.9-4.6v-17.6c0-4-1.3-4.6-3.9-4.6v-1.5h14c5.6,0,8.1,3.5,8.1,7.3
			c0,4.2-3.4,8.8-9.8,8.8h-4.2v7.6c0,4,1.6,4.6,3.9,4.6L373.7,1104.6L373.7,1104.6z M379.6,1082.7c0-3-2.2-5.8-6.5-5.8h-3.4v11.4h4
			C377.7,1088.3,379.6,1085.6,379.6,1082.7z"/>
		<path class="st4" d="M399.3,1102.9v1.6h-12v-1.6c2.6,0,3.9-0.7,3.9-4.6v-17.6c0-3.8-1.1-4.6-3.9-4.6v-1.5h12v1.5
			c-2.6,0-3.9,0.6-3.9,4.6v6.6h15.2v-6.6c0-3.9-0.9-4.6-3.6-4.6v-1.5h11.7v1.5c-2.5,0-3.9,0.5-3.9,4.6v17.6c0,4.2,1.4,4.6,3.9,4.6
			v1.6H407v-1.6c2.3,0,3.6-0.4,3.6-4.6v-8.7h-15.2v8.7C395.4,1102.4,396.6,1102.9,399.3,1102.9z"/>
		<path class="st4" d="M439,1076.1v-1.5h10.3v1.5l0,0c-1.8,0-2.5,0-4.9,3.9l-7.4,12.2v6.1c0,4,1.6,4.6,3.9,4.6v1.6h-11.9v-1.6
			c2.5,0,3.9-0.4,3.9-4.6v-6.1l-8.3-13.9c-0.8-1.7-2.3-2.2-4-2.2h-0.1v-1.5h13v1.5h-0.1c-2.3,0-3.7,0.4-3.7,1.6
			c0,0.6,0.4,1.6,0.8,2.3l5.7,9.4l4.5-7.4c0.7-1.4,1.9-3.1,1.9-4.2C442.5,1076.8,441.2,1076.1,439,1076.1L439,1076.1z"/>
	</g>
</g>
<g>
	<g>
		<path class="st4" d="M675,1102.9v1.6h-12v-1.6c2.6,0,3.9-0.7,3.9-4.6v-17.6c0-3.8-1.1-4.6-3.9-4.6v-1.5h12v1.5
			c-2.6,0-3.9,0.6-3.9,4.6v6.6h15.2v-6.6c0-3.9-0.9-4.6-3.6-4.6v-1.5h11.7v1.5c-2.5,0-3.9,0.5-3.9,4.6v17.6c0,4.2,1.4,4.6,3.9,4.6
			v1.6h-11.7v-1.6c2.3,0,3.6-0.4,3.6-4.6v-8.7h-15.2v8.7C671.2,1102.4,672.4,1102.9,675,1102.9z"/>
		<path class="st4" d="M710.4,1102.9v1.6h-12v-1.6c2.6,0,3.9-0.8,3.9-4.6v-17.6c0-3.7-1.2-4.6-3.9-4.6v-1.5h12v1.5
			c-2.6,0-3.9,0.9-3.9,4.6v17.6C706.5,1101.9,707.8,1102.9,710.4,1102.9z"/>
		<path class="st4" d="M718.9,1080.5c0,7.7,16.1,5.2,16.1,16.5c0,5.1-3.8,8-10.3,8c-4.2,0-6.5-1.2-7.2-1.2c-0.6,0-0.7,0.4-0.7,0.7
			h-1.5l-0.6-7.5h1.6c0,0,0.6,6,8.4,6c2.8,0,6.2-1.8,6.2-4.9c0-8.3-15.8-6.2-15.8-16.4c0-5,3.8-7.7,9.4-7.7c3.7,0,6.1,1.5,7,1.5
			c0.4,0,0.8-0.2,0.8-0.9h1.4l0.5,7.3h-1.6c0,0-0.9-5.7-8.4-5.7C720.4,1076.2,718.9,1078.8,718.9,1080.5z"/>
		<path class="st4" d="M759.2,1077h-5.3v21.3c0,4,1.5,4.6,3.8,4.6v1.6h-11.9v-1.6c2.7,0,3.9-0.9,3.9-4.6V1077h-5.4
			c-4.1,0-3.9,1.2-4.6,4.1h-1.4l0.3-6.5h26.6l0.4,6.5h-1.7C763.2,1077.2,762.8,1077,759.2,1077z"/>
		<path class="st4" d="M797.1,1089.4c0,7.8-5,15.6-14.6,15.6c-9.7,0-14.7-7.8-14.7-15.7c0-7.7,4.7-15.2,14.7-15.2
			C792.3,1074.1,797.1,1081.6,797.1,1089.4z M792,1090.4c0-6.9-3.4-13.9-9.8-13.9c-5.6,0-9.5,4.6-9.5,11.7c0,7.1,3.9,14.6,10.1,14.6
			C788.4,1102.8,792,1097.6,792,1090.4z"/>
		<path class="st4" d="M813,1104.6h-12v-1.6c2.5,0,3.9-0.8,3.9-4.6v-17.6c0-3.7-1.2-4.6-3.9-4.6v-1.5h14c5.6,0,8.1,3.5,8.1,7.3
			c0,3.4-2.1,7.1-6.3,8.3l7.4,10c2,2.5,2.8,2.6,4.2,2.6h0.1v1.6h-6.4l-10.4-13.8h-2.7v7.6c0,3.9,1.6,4.6,3.9,4.6v1.7H813z
			 M819,1082.7c0-3-2.2-5.8-6.5-5.8h-3.4v11.4h4C817,1088.3,819,1085.6,819,1082.7z"/>
		<path class="st4" d="M845.8,1076.1v-1.5h10.3v1.5l0,0c-1.8,0-2.5,0-4.9,3.9l-7.4,12.2v6.1c0,4,1.6,4.6,3.9,4.6v1.6h-11.9v-1.6
			c2.5,0,3.9-0.4,3.9-4.6v-6.1l-8.3-13.9c-0.8-1.7-2.3-2.2-4-2.2h-0.1v-1.5h13v1.5h-0.1c-2.3,0-3.7,0.4-3.7,1.6
			c0,0.6,0.4,1.6,0.8,2.3l5.7,9.4l4.5-7.4c0.7-1.4,1.9-3.1,1.9-4.2C849.3,1076.8,847.9,1076.1,845.8,1076.1L845.8,1076.1z"/>
	</g>
</g>
<g>
	<g>
		<path class="st4" d="M1156.7,1078h-5.3v21.3c0,4,1.5,4.6,3.8,4.6v1.6h-11.9v-1.6c2.7,0,3.9-0.9,3.9-4.6V1078h-5.4
			c-4.1,0-3.9,1.2-4.6,4.1h-1.4l0.3-6.5h26.6l0.4,6.5h-1.6C1160.7,1078.2,1160.3,1078,1156.7,1078z"/>
		<path class="st4" d="M1194.5,1090.3c0,7.8-5,15.6-14.6,15.6c-9.7,0-14.7-7.8-14.7-15.7c0-7.7,4.7-15.2,14.7-15.2
			C1189.8,1075,1194.5,1082.5,1194.5,1090.3z M1189.5,1091.4c0-6.9-3.4-13.9-9.8-13.9c-5.6,0-9.5,4.6-9.5,11.7
			c0,7.1,3.9,14.6,10.1,14.6C1185.9,1103.7,1189.5,1098.5,1189.5,1091.4z"/>
		<path class="st4" d="M1214.1,1105.9c-5.9,0-11.6-3.4-11.6-9.7v-14.7c0-4.2-1.6-4.6-3.9-4.6v-1.5h11.9v1.5c-2.3,0-3.9,0.7-3.9,4.6
			v13.6c0,5.2,4,8,8.3,8c4.3,0,8.8-3.1,8.8-9.6v-12c0-3.6-1.2-4.6-3.9-4.6v-1.5h10.4v1.5c-2.5,0-3.9,0.6-3.9,4.6v12.5
			C1226.4,1102.1,1220.3,1105.9,1214.1,1105.9z"/>
		<path class="st4" d="M1245.8,1105.5h-12v-1.6c2.5,0,3.9-0.8,3.9-4.6v-17.6c0-3.7-1.2-4.6-3.9-4.6v-1.5h14c5.6,0,8.1,3.5,8.1,7.3
			c0,3.4-2.1,7.1-6.3,8.3l7.4,10c2,2.5,2.8,2.6,4.2,2.6h0.1v1.6h-6.4l-10.4-13.8h-2.7v7.6c0,3.9,1.6,4.6,3.9,4.6v1.7H1245.8z
			 M1251.8,1083.7c0-3-2.2-5.8-6.5-5.8h-3.4v11.4h4C1249.8,1089.3,1251.8,1086.5,1251.8,1083.7z"/>
		<path class="st4" d="M1275.1,1103.8v1.6h-12v-1.6c2.6,0,3.9-0.8,3.9-4.6v-17.6c0-3.7-1.2-4.6-3.9-4.6v-1.5h12v1.5
			c-2.6,0-3.9,0.9-3.9,4.6v17.6C1271.2,1102.9,1272.4,1103.8,1275.1,1103.8z"/>
		<path class="st4" d="M1283.5,1081.4c0,7.7,16.1,5.2,16.1,16.5c0,5.1-3.8,8-10.3,8c-4.2,0-6.5-1.2-7.2-1.2s-0.7,0.4-0.7,0.7h-1.5
			l-0.6-7.5h1.6c0,0,0.6,6,8.4,6c2.8,0,6.2-1.8,6.2-4.9c0-8.3-15.8-6.2-15.8-16.4c0-5,3.8-7.7,9.4-7.7c3.7,0,6.1,1.5,7,1.5
			c0.4,0,0.8-0.2,0.8-0.9h1.4l0.5,7.3h-1.6c0,0-0.9-5.7-8.4-5.7C1284.9,1077.1,1283.5,1079.8,1283.5,1081.4z"/>
		<path class="st4" d="M1341.4,1075.5v1.5c-2.5,0-3.8,0.9-3.8,4.6v17.6c0,4,1.5,4.6,3.7,4.6v1.6h-11.7v-1.6c2.7,0,3.8-0.9,3.8-4.6
			v-18.7l-10.6,25.3h-2.6l-10.1-25.1v18.4c0,4,1.2,4.6,3.9,4.6v1.6h-10.3v-1.6c2,0,3.9-0.2,3.9-4.6v-17.6c0-3.4-1.1-4.6-3.9-4.6
			v-1.5h8.9l10,25l10.4-25h8.4V1075.5z"/>
	</g>
</g>
<path class="st8" d="M1449.5,1181.9H67.8c-10.8,0-19.6,8.8-19.6,19.6v310c0,10.8,8.8,19.6,19.6,19.6h1381.6
	c10.8,0,19.6-8.8,19.6-19.6v-310C1469.1,1190.6,1460.3,1181.9,1449.5,1181.9z"/>
<g>
	<g>
		<path class="st4" d="M318.5,1284.2c12.7,0,16.9-0.7,17.9-10l0.1-0.2h2.7l-0.8,13.8H295v-3c4.1,0,7-0.3,7-8.3v-32
			c0-7.4-2.6-8.3-7-8.3v-2.7h21.7v2.7c-4.5,0-7,1.3-7,8.3v32C309.8,1282,310.8,1284.2,318.5,1284.2z"/>
		<path class="st4" d="M376.8,1267.5h-19.6l-4.4,10.9c-0.6,1.5-1.5,3-1.5,4c0,1.6,2.4,2.4,6.1,2.4v3h-18.7v-3c3.8,0,7.2-1.4,9.1-6.3
			l18.6-46h4.5l19.4,48c1.4,3.7,3.3,4.3,7,4.3v3h-21.4v-3c4.4,0,6-1.3,6-3.3c0-1.4-0.6-3.4-1.3-4.9L376.8,1267.5z M375.1,1263.2
			l-8.2-20.4l-8.1,20.4H375.1z"/>
		<path class="st4" d="M419.1,1284.9v3h-18.6v-3c4.5,0,7-1.5,7-8.3v-32c0-7.8-3.2-8.3-7-8.3v-2.7h11.7l34.9,43.1v-32
			c0-6.5-2.1-8.3-7-8.3v-2.7H459v2.7c-4.6,0-6.8,1.7-6.8,8.3v44.1h-5l-34.9-43.2v31C412.2,1283.7,414.8,1284.9,419.1,1284.9z"/>
		<path class="st4" d="M508.5,1234.7c0.7,0,1.2-0.1,1.2-1.2h2.8l0.5,11.8h-2.5c-1.5-4.4-5-9.2-16.2-9.2c-12.5,0-19.5,11.4-19.5,23.6
			c0,16,9.6,24.4,22.4,24.4c2.2,0,4.7-0.7,7.7-2.4v-9.6c0-5.8-1.8-8.1-6.8-8.1v-2.7h21.4v2.7c-4,0-7,1.5-7,8.2v12.8
			c-8.2,2.5-12.6,3.9-18.7,3.9c-20.4,0-28.3-15.4-28.3-27.8c0-16,10.3-28.4,29.3-28.4C502.6,1232.6,506.8,1234.7,508.5,1234.7z"/>
		<path class="st4" d="M553.8,1288.7c-10.8,0-21.2-6.1-21.2-17.5v-26.6c0-7.8-2.8-8.3-7-8.3v-2.7h21.7v2.7c-4.2,0-7,1.4-7,8.3v24.8
			c0,9.4,7.4,14.6,15.1,14.6c7.8,0,15.9-5.7,15.9-17.5v-21.9c0-6.5-2.2-8.3-7-8.3v-2.7h19v2.7c-4.5,0-7.1,1.2-7.1,8.3v22.6
			C576.3,1281.8,565.1,1288.7,553.8,1288.7z"/>
		<path class="st4" d="M616.7,1267.5h-19.6l-4.4,10.9c-0.6,1.5-1.5,3-1.5,4c0,1.6,2.4,2.4,6.1,2.4v3h-18.7v-3c3.8,0,7.2-1.4,9.1-6.3
			l18.6-46h4.5l19.4,48c1.4,3.7,3.3,4.3,7,4.3v3h-21.4v-3c4.4,0,6-1.3,6-3.3c0-1.4-0.6-3.4-1.3-4.9L616.7,1267.5z M614.9,1263.2
			l-8.2-20.4l-8,20.4H614.9z"/>
		<path class="st4" d="M682.7,1234.7c0.7,0,1.2-0.1,1.2-1.2h2.8l0.5,11.8h-2.5c-1.5-4.4-5-9.2-16.2-9.2c-12.5,0-19.5,11.4-19.5,23.6
			c0,16,9.6,24.4,22.4,24.4c2.2,0,4.7-0.7,7.7-2.4v-9.6c0-5.8-1.8-8.1-6.8-8.1v-2.7h21.4v2.7c-4,0-7,1.5-7,8.2v12.8
			c-8.2,2.5-12.6,3.9-18.7,3.9c-20.4,0-28.3-15.4-28.3-27.8c0-16,10.3-28.4,29.3-28.4C676.8,1232.6,681,1234.7,682.7,1234.7z"/>
		<path class="st4" d="M714.7,1260.9v15.7c0,5.3,0.2,7.4,9.7,7.4c11.9,0,13.4-0.6,15.1-8.2h2.6l-0.9,12.2h-41.3v-3
			c4.1,0,7-1.1,7-8.3v-32c0-7.5-2.7-8.3-7-8.3v-2.7h40.7l0.7,11.8h-2.8c-1.4-7.1-2.7-7.5-7.3-7.5h-16.7v18.8h8.3
			c7,0,9.5-0.9,9.5-6.3h2.5v17h-2.5c0-5.8-3-6.4-9.5-6.4h-8.2V1260.9z"/>
		<path class="st4" d="M811,1233.5l0.9,13.3h-2.7c-1.3-7.8-8.7-10.7-15.8-10.7c-9.8,0-20,7.2-20,23.2s11,24.6,21.5,24.6
			c5.1,0,10.3-2,13.8-6.1l2.8,2.8c-4.6,5.4-11.8,8.1-19.3,8.1c-13.8,0-28.1-9.2-28.1-27.8c0-15.7,9.6-28.4,29.3-28.4
			c8.2,0,12,2.1,13.6,2.1c0.6,0,1.1-0.1,1.2-1.2h2.7V1233.5z"/>
		<path class="st4" d="M851.3,1267.5h-19.6l-4.4,10.9c-0.6,1.5-1.5,3-1.5,4c0,1.6,2.4,2.4,6.1,2.4v3h-18.7v-3c3.8,0,7.2-1.4,9.1-6.3
			l18.7-45.9h4.5l19.4,48c1.4,3.7,3.3,4.3,7,4.3v3h-21.4v-3c4.4,0,6-1.3,6-3.3c0-1.4-0.6-3.4-1.3-4.9L851.3,1267.5z M849.5,1263.2
			l-8.2-20.4l-8,20.4H849.5z"/>
		<path class="st4" d="M896.8,1287.9H875v-3c4.1,0,7-0.7,7-8.3v-32c0-7.4-2.3-8.3-7-8.3v-2.7h25.5c10.1,0,14.8,6.3,14.8,13.3
			c0,7.8-6.1,15.9-17.9,15.9h-7.7v13.8c0,7.3,2.8,8.3,7,8.3v3H896.8z M907.6,1248.2c0-5.4-4-10.4-11.8-10.4h-6.1v20.7h7.3
			C904.1,1258.4,907.6,1253.4,907.6,1248.2z"/>
		<path class="st4" d="M948.2,1267.5h-19.6l-4.4,10.9c-0.6,1.5-1.5,3-1.5,4c0,1.6,2.4,2.4,6.1,2.4v3h-18.7v-3c3.8,0,7.2-1.4,9.1-6.3
			l18.6-46h4.5l19.4,48c1.4,3.7,3.3,4.3,7,4.3v3h-21.4v-3c4.4,0,6-1.3,6-3.3c0-1.4-0.6-3.4-1.3-4.9L948.2,1267.5z M946.5,1263.2
			l-8.2-20.4l-8,20.4H946.5z"/>
		<path class="st4" d="M1014.8,1272.9c0,7.4-5.7,15-16.2,15h-26.8v-3c4.9,0,7-1.2,7-8.3v-32c0-6.1-1.9-8.3-7-8.3v-2.7h25.5
			c10.3,0,15,5.9,15,12.5c0,5.8-3.9,11.2-13.2,12.7C1009.9,1259.1,1014.8,1266.1,1014.8,1272.9z M1004.7,1247c0-4.9-4-9.3-11.9-9.3
			h-6.1v18.9h7.3C1000.9,1256.7,1004.7,1251.8,1004.7,1247z M994.7,1284.2c8.5,0,12.3-5.5,12.3-10.9c0-6.1-4.9-12.5-12.7-12.5h-7.7
			v15.7C986.7,1282.6,987.6,1284.2,994.7,1284.2z"/>
		<path class="st4" d="M1043.3,1284.9v3h-21.7v-3c4.7,0,7-1.6,7-8.3v-32c0-6.6-2.2-8.3-7-8.3v-2.7h21.7v2.7c-4.9,0-7,1.8-7,8.3v32
			C1036.4,1283.2,1038.5,1284.9,1043.3,1284.9z"/>
		<path class="st4" d="M1073.9,1284.2c12.7,0,16.9-0.7,17.9-10l0.1-0.2h2.7l-0.8,13.8h-43.5v-3c4.1,0,7-0.3,7-8.3v-32
			c0-7.4-2.6-8.3-7-8.3v-2.7h21.7v2.7c-4.5,0-7,1.3-7,8.3v32C1065.2,1282,1066.2,1284.2,1073.9,1284.2z"/>
		<path class="st4" d="M1122.1,1284.9v3h-21.7v-3c4.7,0,7-1.6,7-8.3v-32c0-6.6-2.2-8.3-7-8.3v-2.7h21.7v2.7c-4.9,0-7,1.8-7,8.3v32
			C1115.1,1283.2,1117.3,1284.9,1122.1,1284.9z"/>
		<path class="st4" d="M1165.8,1237.8h-9.5v38.7c0,7.3,2.7,8.3,7,8.3v3h-21.6v-3c5,0,7-1.8,7-8.3v-38.7h-9.8c-7.5,0-7.2,2.1-8.5,7.5
			h-2.5l0.5-11.8h48.3l0.6,11.8h-2.7C1173.1,1238.3,1172.3,1237.8,1165.8,1237.8z"/>
		<path class="st4" d="M1212.3,1236.2v-2.7h18.8v2.7h-0.1c-3.3,0-4.5-0.1-8.8,7l-13.5,22.2v11.2c0,7.4,2.8,8.3,7,8.3v3h-21.7v-3
			c4.5,0,7-0.8,7-8.3v-11.1l-15.1-25.3c-1.6-3.2-4.1-4-7.4-4h-0.2v-2.7h23.5v2.7h-0.2c-4.1,0-6.6,0.7-6.6,2.8c0,1.1,0.6,2.7,1.5,4.1
			l10.3,17.1l8.2-13.5c1.5-2.4,3.6-5.5,3.6-7.7c0-1.6-2.4-2.8-6.1-2.8h-0.1V1236.2z"/>
	</g>
</g>
<g>
	<path class="st7" d="M500.9,1501.4H86c-3.8,0-7-3.2-7-7V1441c0-3.8,3.2-7,7-7h414.9c3.8,0,7,3.2,7,7v53.4
		C507.8,1498.2,504.8,1501.4,500.9,1501.4z"/>
	<path class="st7" d="M966.1,1501.4H551.2c-3.8,0-7-3.2-7-7V1441c0-3.8,3.2-7,7-7h414.9c3.8,0,7,3.2,7,7v53.4
		C973.1,1498.2,969.9,1501.4,966.1,1501.4z"/>
	<path class="st7" d="M1431.3,1501.4h-414.9c-3.8,0-7-3.2-7-7V1441c0-3.8,3.2-7,7-7h414.9c3.8,0,7,3.2,7,7v53.4
		C1438.3,1498.2,1435.1,1501.4,1431.3,1501.4z"/>
</g>
<g>
	<g>
		<path class="st4" d="M227.4,1477.3c7,0,9.3-0.4,9.9-5.5v-0.1h1.5l-0.4,7.6h-24v-1.6c2.3,0,3.9-0.2,3.9-4.6v-17.6
			c0-4-1.5-4.6-3.9-4.6v-1.5h12v1.5c-2.5,0-3.9,0.7-3.9,4.6v17.6C222.5,1476,223.2,1477.3,227.4,1477.3z"/>
		<path class="st4" d="M250,1464.4v8.7c0,2.8,0.1,4,5.4,4c6.5,0,7.4-0.3,8.3-4.5h1.5l-0.5,6.8h-22.7v-1.6c2.3,0,3.9-0.6,3.9-4.6
			v-17.6c0-4.1-1.6-4.6-3.9-4.6v-1.5h22.5l0.4,6.5h-1.6c-0.7-3.9-1.5-4.1-4-4.1h-9.2v10.3h4.6c3.9,0,5.3-0.5,5.3-3.5h1.4v9.3H260
			c0-3.2-1.6-3.5-5.3-3.5L250,1464.4L250,1464.4z"/>
		<path class="st4" d="M282.5,1461.2l4.1-5.7c0.7-0.9,1.8-2.3,1.8-3.2c0-0.7-0.9-1.4-3.2-1.4v-1.5h10.2v1.5c-2.7,0-3.2,0.4-6.1,4.6
			l-5.6,7.7l7.1,9.8c3.1,4.4,3.8,4.6,5.2,4.6h0.5v1.6h-11.7v-1.6c1.9,0,2.5-0.4,2.5-1.2c0-0.7-0.8-2.1-1.7-3.5l-4.4-6.1l-4.4,6.1
			c-0.4,0.7-1.7,2.3-1.7,3.5c0,0.7,1.1,1.2,2.8,1.2v1.6h-10.1v-1.6c2.2,0,3.5-0.7,6.1-4.6l5.9-8.3l-6.8-9.3
			c-3.1-4.5-3.9-4.6-5.7-4.6v-1.5h11.8v1.5c-2,0-2.6,0.5-2.6,1.3c0,0.7,0.9,2,1.8,3.4L282.5,1461.2z"/>
		<path class="st4" d="M311.3,1477.6v1.6h-12v-1.6c2.6,0,3.9-0.8,3.9-4.6v-17.6c0-3.7-1.2-4.6-3.9-4.6v-1.5h12v1.5
			c-2.6,0-3.9,0.9-3.9,4.6v17.6C307.4,1476.7,308.6,1477.6,311.3,1477.6z"/>
		<path class="st4" d="M340.6,1449.3l0.5,7.3h-1.6c-0.7-4.2-4.7-5.8-8.7-5.8c-5.4,0-11.1,3.9-11.1,12.8s6,13.5,11.8,13.5
			c2.7,0,5.7-1.2,7.6-3.4l1.6,1.6c-2.5,3-6.5,4.4-10.7,4.4c-7.6,0-15.5-5.1-15.5-15.3c0-8.7,5.3-15.6,16.1-15.6
			c4.5,0,6.6,1.2,7.5,1.2c0.3,0,0.6,0,0.6-0.6L340.6,1449.3L340.6,1449.3z"/>
		<path class="st4" d="M373.2,1464.1c0,7.8-5,15.6-14.6,15.6c-9.7,0-14.7-7.8-14.7-15.7c0-7.7,4.7-15.2,14.7-15.2
			C368.3,1448.8,373.2,1456.3,373.2,1464.1z M368.1,1465.2c0-6.9-3.4-13.9-9.8-13.9c-5.6,0-9.5,4.6-9.5,11.7
			c0,7.1,3.9,14.6,10.1,14.6C364.5,1477.5,368.1,1472.2,368.1,1465.2z"/>
		<path class="st4" d="M387.3,1477.6v1.6h-10.2v-1.6c2.5,0,3.9-0.8,3.9-4.6v-17.6c0-4.2-1.7-4.6-3.9-4.6v-1.5h6.4l19.2,23.6v-17.6
			c0-3.6-1.2-4.6-3.8-4.6v-1.5h10.2v1.5c-2.5,0-3.7,0.9-3.7,4.6v24.3h-2.7l-19.2-23.7v17.1C383.5,1476.9,384.9,1477.6,387.3,1477.6z
			"/>
	</g>
</g>
<g>
	<path class="st7" d="M500.9,1409.2H86c-3.8,0-7-3.2-7-7v-53.4c0-3.8,3.2-7,7-7h414.9c3.8,0,7,3.2,7,7v53.4
		C507.8,1406.1,504.8,1409.2,500.9,1409.2z"/>
	<path class="st7" d="M1431.3,1409.2H551.2c-3.8,0-7-3.2-7-7v-53.4c0-3.8,3.2-7,7-7h880.1c3.8,0,7,3.2,7,7v53.4
		C1438.3,1406.1,1435.1,1409.2,1431.3,1409.2z"/>
</g>
<g>
	<path class="st4" d="M229.6,1363.1c0,7.7,16.1,5.2,16.1,16.5c0,5.1-3.8,8-10.3,8c-4.2,0-6.5-1.2-7.2-1.2c-0.6,0-0.7,0.4-0.7,0.7
		H226l-0.6-7.5h1.6c0,0,0.6,6,8.4,6c2.8,0,6.2-1.8,6.2-4.9c0-8.3-15.8-6.2-15.8-16.4c0-5,3.8-7.7,9.4-7.7c3.7,0,6.1,1.5,7,1.5
		c0.4,0,0.8-0.2,0.8-0.9h1.4l0.5,7.3h-1.6c0,0-0.9-5.7-8.4-5.7C231.1,1358.8,229.6,1361.3,229.6,1363.1z"/>
	<path class="st4" d="M266.2,1358.7v-1.5h10.3v1.5l0,0c-1.8,0-2.5,0-4.9,3.9l-7.4,12.2v6.1c0,4,1.6,4.6,3.9,4.6v1.6h-11.9v-1.6
		c2.5,0,3.9-0.4,3.9-4.6v-6.1l-8.3-13.9c-0.8-1.7-2.3-2.2-4-2.2h-0.1v-1.5h13v1.5h-0.1c-2.3,0-3.7,0.4-3.7,1.6
		c0,0.6,0.4,1.6,0.8,2.3l5.7,9.4l4.5-7.4c0.7-1.4,1.9-3.1,1.9-4.2C269.7,1359.4,268.3,1358.7,266.2,1358.7L266.2,1358.7z"/>
	<path class="st4" d="M287.9,1385.5v1.6h-10.2v-1.6c2.5,0,3.9-0.8,3.9-4.6v-17.6c0-4.2-1.7-4.6-3.9-4.6v-1.5h6.4l19.2,23.6v-17.6
		c0-3.6-1.2-4.6-3.8-4.6v-1.5h10.2v1.5c-2.5,0-3.7,0.9-3.7,4.6v24.3h-2.7l-19.2-23.7v17.1C284.2,1384.8,285.6,1385.5,287.9,1385.5z"
		/>
	<path class="st4" d="M334.1,1359.5h-5.3v21.3c0,4,1.5,4.6,3.8,4.6v1.6h-11.8v-1.6c2.7,0,3.9-0.9,3.9-4.6v-21.3h-5.4
		c-4.1,0-3.9,1.2-4.6,4.1h-1.4l0.3-6.5h26.6l0.4,6.5H339C338.1,1359.9,337.6,1359.5,334.1,1359.5z"/>
	<path class="st4" d="M358.8,1375.9H348l-2.4,6c-0.4,0.7-0.8,1.6-0.8,2.2c0,0.8,1.4,1.4,3.4,1.4v1.6h-10.2v-1.6
		c2.1,0,3.9-0.7,5.1-3.5l10.2-25.3h2.5l10.7,26.4c0.7,2,1.8,2.3,3.9,2.3v1.6h-11.8v-1.6c2.4,0,3.3-0.7,3.3-1.8
		c0-0.7-0.3-1.9-0.7-2.7L358.8,1375.9z M357.9,1373.6l-4.5-11.2l-4.4,11.2H357.9z"/>
	<path class="st4" d="M385.8,1369l4.1-5.7c0.7-0.9,1.8-2.3,1.8-3.2c0-0.7-0.9-1.4-3.2-1.4v-1.5h10.2v1.5c-2.7,0-3.2,0.4-6.1,4.6
		l-5.6,7.7l7.1,9.8c3.1,4.4,3.8,4.6,5.2,4.6h0.5v1.6h-11.7v-1.6c1.9,0,2.5-0.4,2.5-1.2c0-0.7-0.8-2.1-1.7-3.5l-4.4-6.1l-4.4,6.1
		c-0.4,0.7-1.7,2.3-1.7,3.5c0,0.7,1.1,1.2,2.8,1.2v1.6h-10.1v-1.6c2.2,0,3.5-0.7,6.1-4.6l5.9-8.3l-6.8-9.3c-3.1-4.5-3.9-4.6-5.7-4.6
		v-1.5h11.8v1.5c-2,0-2.6,0.5-2.6,1.3c0,0.7,0.9,2,1.8,3.4L385.8,1369z"/>
</g>
<g>
	<path class="st4" d="M684.9,1363.1c0,7.7,16.1,5.2,16.1,16.5c0,5.1-3.8,8-10.3,8c-4.2,0-6.5-1.2-7.2-1.2s-0.7,0.4-0.7,0.7h-1.5
		l-0.6-7.5h1.6c0,0,0.6,6,8.4,6c2.8,0,6.2-1.8,6.2-4.9c0-8.3-15.8-6.2-15.8-16.4c0-5,3.8-7.7,9.4-7.7c3.7,0,6.1,1.5,7,1.5
		c0.4,0,0.8-0.2,0.8-0.9h1.4l0.5,7.3h-1.6c0,0-0.9-5.7-8.4-5.7C686.4,1358.8,684.9,1361.3,684.9,1363.1z"/>
	<path class="st4" d="M721.4,1358.7v-1.5h10.3v1.5l0,0c-1.8,0-2.5,0-4.9,3.9l-7.4,12.2v6.1c0,4,1.6,4.6,3.9,4.6v1.6h-11.9v-1.6
		c2.5,0,3.9-0.4,3.9-4.6v-6.1l-8.3-13.9c-0.8-1.7-2.3-2.2-4-2.2h-0.3v-1.5h13v1.5h-0.1c-2.3,0-3.7,0.4-3.7,1.6
		c0,0.6,0.4,1.6,0.8,2.3l5.7,9.4l4.5-7.4c0.7-1.4,1.9-3.1,1.9-4.2C724.9,1359.4,723.5,1358.7,721.4,1358.7L721.4,1358.7z"/>
	<path class="st4" d="M743.2,1385.5v1.6H733v-1.6c2.5,0,3.9-0.8,3.9-4.6v-17.6c0-4.2-1.7-4.6-3.9-4.6v-1.5h6.4l19.2,23.6v-17.6
		c0-3.6-1.2-4.6-3.8-4.6v-1.5h10.2v1.5c-2.5,0-3.7,0.9-3.7,4.6v24.3h-2.7l-19.2-23.7v17.1C739.4,1384.8,740.8,1385.5,743.2,1385.5z"
		/>
	<path class="st4" d="M797.9,1371.9c0,7.8-5,15.6-14.6,15.6c-9.7,0-14.7-7.8-14.7-15.7c0-7.7,4.7-15.2,14.7-15.2
		C793.2,1356.7,797.9,1364.2,797.9,1371.9z M792.8,1373.1c0-6.9-3.4-13.9-9.8-13.9c-5.6,0-9.5,4.6-9.5,11.7
		c0,7.1,3.9,14.6,10.1,14.6C789.3,1385.4,792.8,1380.1,792.8,1373.1z"/>
	<path class="st4" d="M812,1385.5v1.6h-10.2v-1.6c2.5,0,3.9-0.8,3.9-4.6v-17.6c0-4.2-1.7-4.6-3.9-4.6v-1.5h6.4l19.2,23.6v-17.6
		c0-3.6-1.2-4.6-3.8-4.6v-1.5h10.2v1.5c-2.5,0-3.7,0.9-3.7,4.6v24.3h-2.7l-19.2-23.7v17.1C808.2,1384.8,809.6,1385.5,812,1385.5z"/>
	<path class="st4" d="M854.4,1358.7v-1.5h10.3v1.5l0,0c-1.8,0-2.5,0-4.9,3.9l-7.4,12.2v6.1c0,4,1.6,4.6,3.9,4.6v1.6h-11.9v-1.6
		c2.5,0,3.9-0.4,3.9-4.6v-6.1l-8.3-13.9c-0.8-1.7-2.3-2.2-4-2.2h-0.3v-1.5h13v1.5h-0.1c-2.3,0-3.7,0.4-3.7,1.6
		c0,0.6,0.4,1.6,0.8,2.3l5.7,9.4l4.5-7.4c0.7-1.4,1.9-3.1,1.9-4.2C857.8,1359.4,856.5,1358.7,854.4,1358.7L854.4,1358.7z"/>
	<path class="st4" d="M903.7,1357.2v1.5c-2.5,0-3.8,0.9-3.8,4.6v17.6c0,4,1.5,4.6,3.7,4.6v1.6h-11.7v-1.6c2.7,0,3.8-0.9,3.8-4.6
		v-18.7l-10.6,25.3h-2.6l-10.1-25.1v18.4c0,4,1.2,4.6,3.9,4.6v1.6H866v-1.6c2,0,3.9-0.2,3.9-4.6v-17.6c0-3.4-1.1-4.6-3.9-4.6v-1.5
		h8.9l10,25l10.4-25h8.4V1357.2z"/>
	<path class="st4" d="M912.4,1363.1c0,7.7,16.1,5.2,16.1,16.5c0,5.1-3.8,8-10.3,8c-4.2,0-6.5-1.2-7.2-1.2c-0.6,0-0.7,0.4-0.7,0.7
		h-1.5l-0.6-7.5h1.6c0,0,0.6,6,8.4,6c2.8,0,6.2-1.8,6.2-4.9c0-8.3-15.8-6.2-15.8-16.4c0-5,3.8-7.7,9.4-7.7c3.7,0,6.1,1.5,7,1.5
		c0.4,0,0.8-0.2,0.8-0.9h1.4l0.5,7.3h-1.6c0,0-0.9-5.7-8.4-5.7C913.9,1358.8,912.4,1361.3,912.4,1363.1z"/>
	<path class="st4" d="M959.9,1375.9H949l-2.4,6c-0.4,0.7-0.8,1.6-0.8,2.2c0,0.8,1.4,1.4,3.4,1.4v1.6h-10.2v-1.6
		c2.1,0,3.9-0.7,5.1-3.5l10.2-25.3h2.5l10.7,26.4c0.7,2,1.8,2.3,3.9,2.3v1.6h-11.8v-1.6c2.4,0,3.3-0.7,3.3-1.8
		c0-0.7-0.3-1.9-0.7-2.7L959.9,1375.9z M958.9,1373.6l-4.5-11.2l-4.4,11.2H958.9z"/>
	<path class="st4" d="M983.1,1385.5v1.6h-10.2v-1.6c2.5,0,3.9-0.8,3.9-4.6v-17.6c0-4.2-1.7-4.6-3.9-4.6v-1.5h6.4l19.2,23.6v-17.6
		c0-3.6-1.2-4.6-3.8-4.6v-1.5h10.2v1.5c-2.5,0-3.7,0.9-3.7,4.6v24.3h-2.7l-19.2-23.7v17.1C979.4,1384.8,980.8,1385.5,983.1,1385.5z"
		/>
	<path class="st4" d="M1009,1358.7v-1.5h15.2c10,0,14.6,7.9,14.6,15.1c0,8.1-5.8,14.8-14.8,14.8h-14.9v-1.6c2.7,0,3.9-0.7,3.9-4.6
		v-17.6C1012.8,1359.3,1011.7,1358.7,1009,1358.7z M1022,1385.1c6.8,0,11.6-2.5,11.6-11.7c0-5.2-1.1-13.8-12.3-13.8h-4v21.3
		C1017.2,1383.8,1017.7,1385.1,1022,1385.1z"/>
	<path class="st4" d="M1069.7,1375.9h-10.9l-2.4,6c-0.4,0.7-0.8,1.6-0.8,2.2c0,0.8,1.4,1.4,3.4,1.4v1.6h-10.2v-1.6
		c2.1,0,3.9-0.7,5.1-3.5l10.2-25.3h2.5l10.7,26.4c0.7,2,1.8,2.3,3.9,2.3v1.6h-11.8v-1.6c2.4,0,3.3-0.7,3.3-1.8
		c0-0.7-0.3-1.9-0.7-2.7L1069.7,1375.9z M1068.7,1373.6l-4.5-11.2l-4.4,11.2H1068.7z"/>
	<path class="st4" d="M1092.9,1385.5v1.6h-10.2v-1.6c2.5,0,3.9-0.8,3.9-4.6v-17.6c0-4.2-1.7-4.6-3.9-4.6v-1.5h6.4l19.2,23.6v-17.6
		c0-3.6-1.2-4.6-3.8-4.6v-1.5h10.2v1.5c-2.5,0-3.7,0.9-3.7,4.6v24.3h-2.7l-19.2-23.7v17.1
		C1089.1,1384.8,1090.5,1385.5,1092.9,1385.5z"/>
	<path class="st4" d="M1139,1359.5h-5.3v21.3c0,4,1.5,4.6,3.8,4.6v1.6h-11.9v-1.6c2.7,0,3.9-0.9,3.9-4.6v-21.3h-5.4
		c-4.1,0-3.9,1.2-4.6,4.1h-1.4l0.3-6.5h26.6l0.4,6.5h-1.6C1143.1,1359.9,1142.5,1359.5,1139,1359.5z"/>
	<path class="st4" d="M1176.9,1371.9c0,7.8-5,15.6-14.6,15.6c-9.7,0-14.7-7.8-14.7-15.7c0-7.7,4.7-15.2,14.7-15.2
		C1172.1,1356.7,1176.9,1364.2,1176.9,1371.9z M1171.9,1373.1c0-6.9-3.4-13.9-9.8-13.9c-5.6,0-9.5,4.6-9.5,11.7
		c0,7.1,3.9,14.6,10.1,14.6C1168.3,1385.4,1171.9,1380.1,1171.9,1373.1z"/>
	<path class="st4" d="M1191.1,1385.5v1.6h-10.2v-1.6c2.5,0,3.9-0.8,3.9-4.6v-17.6c0-4.2-1.7-4.6-3.9-4.6v-1.5h6.4l19.2,23.6v-17.6
		c0-3.6-1.2-4.6-3.8-4.6v-1.5h10.2v1.5c-2.5,0-3.7,0.9-3.7,4.6v24.3h-2.7l-19.2-23.7v17.1
		C1187.3,1384.8,1188.6,1385.5,1191.1,1385.5z"/>
	<path class="st4" d="M1233.4,1358.7v-1.5h10.3v1.5l0,0c-1.8,0-2.5,0-4.9,3.9l-7.4,12.2v6.1c0,4,1.6,4.6,3.9,4.6v1.6h-11.9v-1.6
		c2.5,0,3.9-0.4,3.9-4.6v-6.1l-8.3-13.9c-0.8-1.7-2.3-2.2-4-2.2h-0.1v-1.5h13v1.5h-0.1c-2.3,0-3.7,0.4-3.7,1.6
		c0,0.6,0.4,1.6,0.8,2.3l5.7,9.4l4.5-7.4c0.7-1.4,1.9-3.1,1.9-4.2C1236.9,1359.4,1235.5,1358.7,1233.4,1358.7L1233.4,1358.7z"/>
	<path class="st4" d="M1282.8,1357.2v1.5c-2.5,0-3.8,0.9-3.8,4.6v17.6c0,4,1.5,4.6,3.7,4.6v1.6h-11.7v-1.6c2.7,0,3.8-0.9,3.8-4.6
		v-18.7l-10.6,25.3h-2.6l-10.1-25.1v18.4c0,4,1.2,4.6,3.9,4.6v1.6H1245v-1.6c2,0,3.9-0.2,3.9-4.6v-17.6c0-3.4-1.1-4.6-3.9-4.6v-1.5
		h8.9l10,25l10.4-25h8.4V1357.2z"/>
	<path class="st4" d="M1291.4,1363.1c0,7.7,16.1,5.2,16.1,16.5c0,5.1-3.8,8-10.3,8c-4.2,0-6.5-1.2-7.2-1.2s-0.7,0.4-0.7,0.7h-1.5
		l-0.6-7.5h1.6c0,0,0.6,6,8.4,6c2.8,0,6.2-1.8,6.2-4.9c0-8.3-15.8-6.2-15.8-16.4c0-5,3.8-7.7,9.4-7.7c3.7,0,6.1,1.5,7,1.5
		c0.4,0,0.8-0.2,0.8-0.9h1.4l0.5,7.3h-1.6c0,0-0.9-5.7-8.4-5.7C1292.9,1358.8,1291.4,1361.3,1291.4,1363.1z"/>
</g>
<g>
	<path class="st4" d="M638.3,1449.3v1.5c-2.5,0-3.8,0.9-3.8,4.6v17.6c0,4,1.5,4.6,3.7,4.6v1.6h-11.7v-1.6c2.7,0,3.8-0.9,3.8-4.6
		v-18.7l-10.6,25.3H617l-10.1-25.1v18.4c0,4,1.2,4.6,3.9,4.6v1.6h-10.3v-1.6c2,0,3.9-0.2,3.9-4.6v-17.6c0-3.4-1.1-4.6-3.9-4.6v-1.5
		h8.9l10,25l10.4-25h8.4V1449.3z"/>
	<path class="st4" d="M671.2,1464.1c0,7.8-5,15.6-14.6,15.6c-9.7,0-14.7-7.8-14.7-15.7c0-7.7,4.7-15.2,14.7-15.2
		C666.5,1448.8,671.2,1456.3,671.2,1464.1z M666.1,1465.2c0-6.9-3.4-13.9-9.8-13.9c-5.6,0-9.5,4.6-9.5,11.7
		c0,7.1,3.9,14.6,10.1,14.6C662.5,1477.5,666.1,1472.2,666.1,1465.2z"/>
	<path class="st4" d="M687,1479.2h-12v-1.6c2.5,0,3.9-0.8,3.9-4.6v-17.6c0-3.7-1.2-4.6-3.9-4.6v-1.5h14c5.6,0,8.1,3.5,8.1,7.3
		c0,3.4-2.1,7.1-6.3,8.3l7.4,10c2,2.5,2.8,2.6,4.2,2.6h0.1v1.6h-6.4l-10.4-13.8h-2.7v7.6c0,3.9,1.6,4.6,3.9,4.6v1.7H687z
		 M693,1457.5c0-3-2.2-5.8-6.5-5.8h-3.4v11.4h4C691,1463.1,693,1460.3,693,1457.5z"/>
	<path class="st4" d="M717.5,1479.2h-12v-1.6c2.3,0,3.9-0.4,3.9-4.6v-17.6c0-4-1.3-4.6-3.9-4.6v-1.5h14.1c5.6,0,8.1,3.5,8.1,7.3
		c0,4.2-3.4,8.8-9.8,8.8h-4.2v7.6c0,4,1.6,4.6,3.9,4.6v1.7H717.5z M723.5,1457.5c0-3-2.2-5.8-6.5-5.8h-3.4v11.4h4
		C721.5,1463.1,723.5,1460.3,723.5,1457.5z"/>
	<path class="st4" d="M743,1477.6v1.6h-12v-1.6c2.6,0,3.9-0.7,3.9-4.6v-17.6c0-3.8-1.1-4.6-3.9-4.6v-1.5h12v1.5
		c-2.6,0-3.9,0.6-3.9,4.6v6.6h15.2v-6.6c0-3.9-0.9-4.6-3.6-4.6v-1.5h11.7v1.5c-2.5,0-3.9,0.5-3.9,4.6v17.6c0,4.2,1.4,4.6,3.9,4.6
		v1.6h-11.7v-1.6c2.3,0,3.6-0.4,3.6-4.6v-8.7h-15.2v8.7C739.2,1477.2,740.5,1477.6,743,1477.6z"/>
	<path class="st4" d="M795.3,1464.1c0,7.8-5,15.6-14.6,15.6c-9.7,0-14.7-7.8-14.7-15.7c0-7.7,4.7-15.2,14.7-15.2
		C790.6,1448.8,795.3,1456.3,795.3,1464.1z M790.2,1465.2c0-6.9-3.4-13.9-9.8-13.9c-5.6,0-9.5,4.6-9.5,11.7
		c0,7.1,3.9,14.6,10.1,14.6C786.6,1477.5,790.2,1472.2,790.2,1465.2z"/>
	<path class="st4" d="M812.2,1477.3c7,0,9.3-0.4,9.9-5.5v-0.1h1.5l-0.4,7.6h-24v-1.6c2.3,0,3.9-0.2,3.9-4.6v-17.6
		c0-4-1.5-4.6-3.9-4.6v-1.5h12v1.5c-2.5,0-3.9,0.7-3.9,4.6v17.6C807.3,1476,807.8,1477.3,812.2,1477.3z"/>
	<path class="st4" d="M855.3,1464.1c0,7.8-5,15.6-14.6,15.6c-9.7,0-14.7-7.8-14.7-15.7c0-7.7,4.7-15.2,14.7-15.2
		C850.6,1448.8,855.3,1456.3,855.3,1464.1z M850.2,1465.2c0-6.9-3.4-13.9-9.8-13.9c-5.6,0-9.5,4.6-9.5,11.7
		c0,7.1,3.9,14.6,10.1,14.6C846.8,1477.5,850.2,1472.2,850.2,1465.2z"/>
	<path class="st4" d="M882.5,1450c0.4,0,0.6,0,0.6-0.6h1.6l0.3,6.5h-1.4c-0.7-2.4-2.7-5.1-8.9-5.1c-6.9,0-10.8,6.2-10.8,13
		c0,8.9,5.3,13.4,12.3,13.4c1.2,0,2.6-0.4,4.2-1.4v-5.3c0-3.2-0.9-4.4-3.7-4.4v-1.6h11.8v1.5c-2.2,0-3.9,0.8-3.9,4.5v7
		c-4.5,1.4-7,2.1-10.2,2.1c-11.2,0-15.5-8.5-15.5-15.3c0-8.9,5.7-15.6,16.1-15.6C879.3,1448.8,881.6,1450,882.5,1450z"/>
	<path class="st4" d="M908.4,1450.8v-1.5h10.3v1.5l0,0c-1.8,0-2.5,0-4.9,3.9l-7.4,12.2v6.1c0,4,1.6,4.6,3.9,4.6v1.6h-11.9v-1.6
		c2.5,0,3.9-0.4,3.9-4.6v-6.1L894,1453c-0.8-1.7-2.3-2.2-4-2.2h-0.1v-1.5h13v1.5h-0.1c-2.3,0-3.7,0.4-3.7,1.6c0,0.6,0.4,1.6,0.8,2.3
		l5.7,9.4l4.5-7.4c0.7-1.4,1.9-3.1,1.9-4.2C911.9,1451.6,910.5,1450.8,908.4,1450.8L908.4,1450.8z"/>
</g>
<g>
	<path class="st4" d="M1105.8,1465.1c0,7.8-5,15.6-14.6,15.6c-9.7,0-14.7-7.8-14.7-15.7c0-7.7,4.7-15.2,14.7-15.2
		S1105.8,1457.3,1105.8,1465.1z M1100.7,1466.1c0-6.9-3.4-13.9-9.8-13.9c-5.6,0-9.5,4.6-9.5,11.7c0,7.1,3.9,14.6,10.1,14.6
		C1097.2,1478.5,1100.7,1473.3,1100.7,1466.1z"/>
	<path class="st4" d="M1121.7,1480.3h-12v-1.6c2.5,0,3.9-0.8,3.9-4.6v-17.6c0-3.7-1.2-4.6-3.9-4.6v-1.5h14c5.6,0,8.1,3.5,8.1,7.3
		c0,3.4-2.1,7.1-6.3,8.3l7.4,10c2,2.5,2.8,2.6,4.2,2.6h0.1v1.6h-6.4l-10.4-13.8h-2.7v7.6c0,3.9,1.6,4.6,3.9,4.6v1.7H1121.7z
		 M1127.8,1458.4c0-3-2.2-5.8-6.5-5.8h-3.4v11.4h4C1125.7,1464,1127.8,1461.3,1127.8,1458.4z"/>
	<path class="st4" d="M1158.4,1452.7h-5.3v21.3c0,4,1.5,4.6,3.8,4.6v1.6H1145v-1.6c2.7,0,3.9-0.9,3.9-4.6v-21.3h-5.4
		c-4.1,0-3.9,1.2-4.6,4.1h-1.4l0.3-6.5h26.6l0.4,6.5h-1.6C1162.4,1452.9,1161.9,1452.7,1158.4,1452.7z"/>
	<path class="st4" d="M1196.2,1465.1c0,7.8-5,15.6-14.6,15.6c-9.7,0-14.7-7.8-14.7-15.7c0-7.7,4.7-15.2,14.7-15.2
		C1191.5,1449.8,1196.2,1457.3,1196.2,1465.1z M1191.2,1466.1c0-6.9-3.4-13.9-9.8-13.9c-5.6,0-9.5,4.6-9.5,11.7
		c0,7.1,3.9,14.6,10.1,14.6C1187.6,1478.5,1191.2,1473.3,1191.2,1466.1z"/>
	<path class="st4" d="M1223.4,1450.9c0.4,0,0.6,0,0.6-0.6h1.6l0.3,6.5h-1.4c-0.7-2.4-2.7-5.1-8.9-5.1c-6.9,0-10.8,6.2-10.8,13
		c0,8.9,5.3,13.4,12.3,13.4c1.2,0,2.6-0.4,4.2-1.4v-5.3c0-3.2-0.9-4.4-3.7-4.4v-1.6h11.8v1.5c-2.2,0-3.9,0.8-3.9,4.5v7
		c-4.5,1.4-7,2.1-10.2,2.1c-11.2,0-15.5-8.5-15.5-15.3c0-8.9,5.7-15.6,16.1-15.6C1220.1,1449.8,1222.4,1450.9,1223.4,1450.9z"/>
	<path class="st4" d="M1244.8,1480.3h-12v-1.6c2.5,0,3.9-0.8,3.9-4.6v-17.6c0-3.7-1.2-4.6-3.9-4.6v-1.5h14c5.6,0,8.1,3.5,8.1,7.3
		c0,3.4-2.1,7.1-6.3,8.3l7.4,10c2,2.5,2.8,2.6,4.2,2.6h0.1v1.6h-6.4l-10.4-13.8h-2.7v7.6c0,3.9,1.6,4.6,3.9,4.6v1.7H1244.8z
		 M1250.8,1458.4c0-3-2.2-5.8-6.5-5.8h-3.4v11.4h4C1248.8,1464,1250.8,1461.3,1250.8,1458.4z"/>
	<path class="st4" d="M1279.8,1469.1h-10.9l-2.4,6c-0.4,0.7-0.8,1.6-0.8,2.2c0,0.8,1.4,1.4,3.4,1.4v1.6h-10.2v-1.6
		c2.1,0,3.9-0.7,5.1-3.5l10.2-25.3h2.5l10.7,26.4c0.7,2,1.8,2.3,3.9,2.3v1.6h-11.8v-1.6c2.4,0,3.3-0.7,3.3-1.8
		c0-0.7-0.3-1.9-0.7-2.7L1279.8,1469.1z M1278.9,1466.6l-4.5-11.2l-4.4,11.2H1278.9z"/>
	<path class="st4" d="M1304.8,1480.3h-12v-1.6c2.3,0,3.9-0.4,3.9-4.6v-17.6c0-4-1.3-4.6-3.9-4.6v-1.5h14c5.6,0,8.1,3.5,8.1,7.3
		c0,4.2-3.4,8.8-9.8,8.8h-4.2v7.6c0,4,1.6,4.6,3.9,4.6L1304.8,1480.3L1304.8,1480.3z M1310.8,1458.4c0-3-2.2-5.8-6.5-5.8h-3.4v11.4
		h4C1308.8,1464,1310.8,1461.3,1310.8,1458.4z"/>
	<path class="st4" d="M1330.3,1478.6v1.6h-12v-1.6c2.6,0,3.9-0.7,3.9-4.6v-17.6c0-3.8-1.1-4.6-3.9-4.6v-1.5h12v1.5
		c-2.6,0-3.9,0.6-3.9,4.6v6.6h15.2v-6.6c0-3.9-0.9-4.6-3.6-4.6v-1.5h11.7v1.5c-2.5,0-3.9,0.5-3.9,4.6v17.6c0,4.2,1.4,4.6,3.9,4.6
		v1.6H1338v-1.6c2.3,0,3.6-0.4,3.6-4.6v-8.7h-15.2v8.7C1326.4,1478.2,1327.8,1478.6,1330.3,1478.6z"/>
	<path class="st4" d="M1370.1,1451.8v-1.5h10.3v1.5l0,0c-1.8,0-2.5,0-4.9,3.9l-7.4,12.2v6.1c0,4,1.6,4.6,3.9,4.6v1.6h-12v-1.6
		c2.5,0,3.9-0.4,3.9-4.6v-6.1l-8.3-13.9c-0.8-1.7-2.3-2.2-4-2.2h-0.1v-1.5h13v1.5h-0.1c-2.3,0-3.7,0.4-3.7,1.6
		c0,0.6,0.4,1.6,0.8,2.3l5.7,9.4l4.5-7.4c0.7-1.4,1.9-3.1,1.9-4.2C1373.6,1452.5,1372.3,1451.8,1370.1,1451.8L1370.1,1451.8z"/>
</g>
<polygon class="st7" points="800.9,395.3 703,334.3 703,367.9 703,422.8 703,456.4 "/>
<polygon class="st7" points="1130.6,773 1191.6,675.2 1158,675.2 1103.1,675.2 1069.5,675.2 "/>
</svg>
